<svg width="210" height="152" viewBox="0 0 210 152" fill="none" xmlns="http://www.w3.org/2000/svg">
<ellipse cx="2.05874" cy="2.46872" rx="1.74343" ry="1.73899" fill="#EBEBEB"/>
<ellipse cx="12.859" cy="2.46872" rx="1.74343" ry="1.73899" fill="#EBEBEB"/>
<ellipse cx="23.6593" cy="2.46872" rx="1.74343" ry="1.73899" fill="#EBEBEB"/>
<ellipse cx="34.4595" cy="2.46872" rx="1.74343" ry="1.73899" fill="#EBEBEB"/>
<ellipse cx="45.2598" cy="2.46872" rx="1.74343" ry="1.73899" fill="#EBEBEB"/>
<ellipse cx="56.0601" cy="2.46872" rx="1.74343" ry="1.73899" fill="#EBEBEB"/>
<ellipse cx="66.8603" cy="2.46872" rx="1.74343" ry="1.73899" fill="#EBEBEB"/>
<ellipse cx="77.6606" cy="2.46872" rx="1.74343" ry="1.73899" fill="#EBEBEB"/>
<ellipse cx="88.4608" cy="2.46872" rx="1.74343" ry="1.73899" fill="#EBEBEB"/>
<ellipse cx="99.2611" cy="2.46872" rx="1.74343" ry="1.73899" fill="#EBEBEB"/>
<ellipse cx="110.061" cy="2.46872" rx="1.74343" ry="1.73899" fill="#EBEBEB"/>
<ellipse cx="120.862" cy="2.46872" rx="1.74343" ry="1.73899" fill="#EBEBEB"/>
<ellipse cx="131.662" cy="2.46872" rx="1.74343" ry="1.73899" fill="#EBEBEB"/>
<ellipse cx="142.462" cy="2.46872" rx="1.74343" ry="1.73899" fill="#EBEBEB"/>
<ellipse cx="153.262" cy="2.46872" rx="1.74343" ry="1.73899" fill="#EBEBEB"/>
<ellipse cx="164.063" cy="2.46872" rx="1.74343" ry="1.73899" fill="#EBEBEB"/>
<ellipse cx="174.863" cy="2.46872" rx="1.74343" ry="1.73899" fill="#EBEBEB"/>
<ellipse cx="185.663" cy="2.46872" rx="1.74343" ry="1.73899" fill="#EBEBEB"/>
<ellipse cx="196.463" cy="2.46872" rx="1.74343" ry="1.73899" fill="#EBEBEB"/>
<ellipse cx="207.264" cy="2.46872" rx="1.74343" ry="1.73899" fill="#EBEBEB"/>
<ellipse cx="2.05874" cy="12.2647" rx="1.74343" ry="1.73899" fill="#EBEBEB"/>
<ellipse cx="12.859" cy="12.2647" rx="1.74343" ry="1.73899" fill="#EBEBEB"/>
<ellipse cx="23.6593" cy="12.2647" rx="1.74343" ry="1.73899" fill="#EBEBEB"/>
<ellipse cx="34.4595" cy="12.2647" rx="1.74343" ry="1.73899" fill="#EBEBEB"/>
<ellipse cx="45.2598" cy="12.2647" rx="1.74343" ry="1.73899" fill="#EBEBEB"/>
<ellipse cx="56.0601" cy="12.2647" rx="1.74343" ry="1.73899" fill="#EBEBEB"/>
<ellipse cx="66.8603" cy="12.2647" rx="1.74343" ry="1.73899" fill="#EBEBEB"/>
<ellipse cx="77.6606" cy="12.2647" rx="1.74343" ry="1.73899" fill="#EBEBEB"/>
<ellipse cx="88.4608" cy="12.2647" rx="1.74343" ry="1.73899" fill="#EBEBEB"/>
<ellipse cx="99.2611" cy="12.2647" rx="1.74343" ry="1.73899" fill="#EBEBEB"/>
<ellipse cx="110.061" cy="12.2647" rx="1.74343" ry="1.73899" fill="#EBEBEB"/>
<ellipse cx="120.862" cy="12.2647" rx="1.74343" ry="1.73899" fill="#EBEBEB"/>
<ellipse cx="131.662" cy="12.2647" rx="1.74343" ry="1.73899" fill="#EBEBEB"/>
<ellipse cx="142.462" cy="12.2647" rx="1.74343" ry="1.73899" fill="#EBEBEB"/>
<ellipse cx="153.262" cy="12.2647" rx="1.74343" ry="1.73899" fill="#EBEBEB"/>
<ellipse cx="164.063" cy="12.2647" rx="1.74343" ry="1.73899" fill="#EBEBEB"/>
<ellipse cx="174.863" cy="12.2647" rx="1.74343" ry="1.73899" fill="#EBEBEB"/>
<ellipse cx="185.663" cy="12.2647" rx="1.74343" ry="1.73899" fill="#EBEBEB"/>
<ellipse cx="196.463" cy="12.2647" rx="1.74343" ry="1.73899" fill="#EBEBEB"/>
<ellipse cx="207.264" cy="12.2647" rx="1.74343" ry="1.73899" fill="#EBEBEB"/>
<ellipse cx="2.05874" cy="22.0606" rx="1.74343" ry="1.73899" fill="#EBEBEB"/>
<ellipse cx="12.859" cy="22.0606" rx="1.74343" ry="1.73899" fill="#EBEBEB"/>
<ellipse cx="23.6593" cy="22.0606" rx="1.74343" ry="1.73899" fill="#EBEBEB"/>
<ellipse cx="34.4595" cy="22.0606" rx="1.74343" ry="1.73899" fill="#EBEBEB"/>
<ellipse cx="45.2598" cy="22.0606" rx="1.74343" ry="1.73899" fill="#EBEBEB"/>
<ellipse cx="56.0601" cy="22.0606" rx="1.74343" ry="1.73899" fill="#EBEBEB"/>
<ellipse cx="66.8603" cy="22.0606" rx="1.74343" ry="1.73899" fill="#EBEBEB"/>
<ellipse cx="77.6606" cy="22.0606" rx="1.74343" ry="1.73899" fill="#EBEBEB"/>
<ellipse cx="88.4608" cy="22.0606" rx="1.74343" ry="1.73899" fill="#EBEBEB"/>
<ellipse cx="99.2611" cy="22.0606" rx="1.74343" ry="1.73899" fill="#EBEBEB"/>
<ellipse cx="110.061" cy="22.0606" rx="1.74343" ry="1.73899" fill="#EBEBEB"/>
<ellipse cx="120.862" cy="22.0606" rx="1.74343" ry="1.73899" fill="#EBEBEB"/>
<ellipse cx="131.662" cy="22.0606" rx="1.74343" ry="1.73899" fill="#EBEBEB"/>
<ellipse cx="142.462" cy="22.0606" rx="1.74343" ry="1.73899" fill="#EBEBEB"/>
<ellipse cx="153.262" cy="22.0606" rx="1.74343" ry="1.73899" fill="#EBEBEB"/>
<ellipse cx="164.063" cy="22.0606" rx="1.74343" ry="1.73899" fill="#EBEBEB"/>
<ellipse cx="174.863" cy="22.0606" rx="1.74343" ry="1.73899" fill="#EBEBEB"/>
<ellipse cx="185.663" cy="22.0606" rx="1.74343" ry="1.73899" fill="#EBEBEB"/>
<ellipse cx="196.463" cy="22.0606" rx="1.74343" ry="1.73899" fill="#EBEBEB"/>
<ellipse cx="207.264" cy="22.0606" rx="1.74343" ry="1.73899" fill="#EBEBEB"/>
<ellipse cx="2.05874" cy="31.8566" rx="1.74343" ry="1.73899" fill="#EBEBEB"/>
<ellipse cx="12.859" cy="31.8566" rx="1.74343" ry="1.73899" fill="#EBEBEB"/>
<ellipse cx="23.6593" cy="31.8566" rx="1.74343" ry="1.73899" fill="#EBEBEB"/>
<ellipse cx="34.4595" cy="31.8566" rx="1.74343" ry="1.73899" fill="#EBEBEB"/>
<ellipse cx="45.2598" cy="31.8566" rx="1.74343" ry="1.73899" fill="#EBEBEB"/>
<ellipse cx="56.0601" cy="31.8566" rx="1.74343" ry="1.73899" fill="#EBEBEB"/>
<ellipse cx="66.8603" cy="31.8566" rx="1.74343" ry="1.73899" fill="#EBEBEB"/>
<ellipse cx="77.6606" cy="31.8566" rx="1.74343" ry="1.73899" fill="#EBEBEB"/>
<ellipse cx="88.4608" cy="31.8566" rx="1.74343" ry="1.73899" fill="#EBEBEB"/>
<ellipse cx="99.2611" cy="31.8566" rx="1.74343" ry="1.73899" fill="#EBEBEB"/>
<ellipse cx="110.061" cy="31.8566" rx="1.74343" ry="1.73899" fill="#EBEBEB"/>
<ellipse cx="120.862" cy="31.8566" rx="1.74343" ry="1.73899" fill="#EBEBEB"/>
<ellipse cx="131.662" cy="31.8566" rx="1.74343" ry="1.73899" fill="#EBEBEB"/>
<ellipse cx="142.462" cy="31.8566" rx="1.74343" ry="1.73899" fill="#EBEBEB"/>
<ellipse cx="153.262" cy="31.8566" rx="1.74343" ry="1.73899" fill="#EBEBEB"/>
<ellipse cx="164.063" cy="31.8566" rx="1.74343" ry="1.73899" fill="#EBEBEB"/>
<ellipse cx="174.863" cy="31.8566" rx="1.74343" ry="1.73899" fill="#EBEBEB"/>
<ellipse cx="185.663" cy="31.8566" rx="1.74343" ry="1.73899" fill="#EBEBEB"/>
<ellipse cx="196.463" cy="31.8566" rx="1.74343" ry="1.73899" fill="#EBEBEB"/>
<ellipse cx="207.264" cy="31.8566" rx="1.74343" ry="1.73899" fill="#EBEBEB"/>
<ellipse cx="2.05874" cy="41.6526" rx="1.74343" ry="1.73899" fill="#EBEBEB"/>
<ellipse cx="12.859" cy="41.6526" rx="1.74343" ry="1.73899" fill="#EBEBEB"/>
<ellipse cx="23.6593" cy="41.6526" rx="1.74343" ry="1.73899" fill="#EBEBEB"/>
<ellipse cx="34.4595" cy="41.6526" rx="1.74343" ry="1.73899" fill="#EBEBEB"/>
<ellipse cx="45.2598" cy="41.6526" rx="1.74343" ry="1.73899" fill="#EBEBEB"/>
<ellipse cx="56.0601" cy="41.6526" rx="1.74343" ry="1.73899" fill="#EBEBEB"/>
<ellipse cx="66.8603" cy="41.6526" rx="1.74343" ry="1.73899" fill="#EBEBEB"/>
<ellipse cx="77.6606" cy="41.6526" rx="1.74343" ry="1.73899" fill="#EBEBEB"/>
<ellipse cx="88.4608" cy="41.6526" rx="1.74343" ry="1.73899" fill="#EBEBEB"/>
<ellipse cx="99.2611" cy="41.6526" rx="1.74343" ry="1.73899" fill="#EBEBEB"/>
<ellipse cx="110.061" cy="41.6526" rx="1.74343" ry="1.73899" fill="#EBEBEB"/>
<ellipse cx="120.862" cy="41.6526" rx="1.74343" ry="1.73899" fill="#EBEBEB"/>
<ellipse cx="131.662" cy="41.6526" rx="1.74343" ry="1.73899" fill="#EBEBEB"/>
<ellipse cx="142.462" cy="41.6526" rx="1.74343" ry="1.73899" fill="#EBEBEB"/>
<ellipse cx="153.262" cy="41.6526" rx="1.74343" ry="1.73899" fill="#EBEBEB"/>
<ellipse cx="164.063" cy="41.6526" rx="1.74343" ry="1.73899" fill="#EBEBEB"/>
<ellipse cx="174.863" cy="41.6526" rx="1.74343" ry="1.73899" fill="#EBEBEB"/>
<ellipse cx="185.663" cy="41.6526" rx="1.74343" ry="1.73899" fill="#EBEBEB"/>
<ellipse cx="196.463" cy="41.6526" rx="1.74343" ry="1.73899" fill="#EBEBEB"/>
<ellipse cx="207.264" cy="41.6526" rx="1.74343" ry="1.73899" fill="#EBEBEB"/>
<ellipse cx="2.05874" cy="51.4486" rx="1.74343" ry="1.73899" fill="#EBEBEB"/>
<ellipse cx="12.859" cy="51.4486" rx="1.74343" ry="1.73899" fill="#EBEBEB"/>
<ellipse cx="23.6593" cy="51.4486" rx="1.74343" ry="1.73899" fill="#EBEBEB"/>
<ellipse cx="34.4595" cy="51.4486" rx="1.74343" ry="1.73899" fill="#EBEBEB"/>
<ellipse cx="45.2598" cy="51.4486" rx="1.74343" ry="1.73899" fill="#EBEBEB"/>
<ellipse cx="56.0601" cy="51.4486" rx="1.74343" ry="1.73899" fill="#EBEBEB"/>
<ellipse cx="66.8603" cy="51.4486" rx="1.74343" ry="1.73899" fill="#EBEBEB"/>
<ellipse cx="77.6606" cy="51.4486" rx="1.74343" ry="1.73899" fill="#EBEBEB"/>
<ellipse cx="88.4608" cy="51.4486" rx="1.74343" ry="1.73899" fill="#EBEBEB"/>
<ellipse cx="99.2611" cy="51.4486" rx="1.74343" ry="1.73899" fill="#EBEBEB"/>
<ellipse cx="110.061" cy="51.4486" rx="1.74343" ry="1.73899" fill="#EBEBEB"/>
<ellipse cx="120.862" cy="51.4486" rx="1.74343" ry="1.73899" fill="#EBEBEB"/>
<ellipse cx="131.662" cy="51.4486" rx="1.74343" ry="1.73899" fill="#EBEBEB"/>
<ellipse cx="142.462" cy="51.4486" rx="1.74343" ry="1.73899" fill="#EBEBEB"/>
<ellipse cx="153.262" cy="51.4486" rx="1.74343" ry="1.73899" fill="#EBEBEB"/>
<ellipse cx="164.063" cy="51.4486" rx="1.74343" ry="1.73899" fill="#EBEBEB"/>
<ellipse cx="174.863" cy="51.4486" rx="1.74343" ry="1.73899" fill="#EBEBEB"/>
<ellipse cx="185.663" cy="51.4486" rx="1.74343" ry="1.73899" fill="#EBEBEB"/>
<ellipse cx="196.463" cy="51.4486" rx="1.74343" ry="1.73899" fill="#EBEBEB"/>
<ellipse cx="207.264" cy="51.4486" rx="1.74343" ry="1.73899" fill="#EBEBEB"/>
<ellipse cx="2.05874" cy="61.2445" rx="1.74343" ry="1.73899" fill="#EBEBEB"/>
<ellipse cx="12.859" cy="61.2445" rx="1.74343" ry="1.73899" fill="#EBEBEB"/>
<ellipse cx="23.6593" cy="61.2445" rx="1.74343" ry="1.73899" fill="#EBEBEB"/>
<ellipse cx="34.4595" cy="61.2445" rx="1.74343" ry="1.73899" fill="#EBEBEB"/>
<ellipse cx="45.2598" cy="61.2445" rx="1.74343" ry="1.73899" fill="#EBEBEB"/>
<ellipse cx="56.0601" cy="61.2445" rx="1.74343" ry="1.73899" fill="#EBEBEB"/>
<ellipse cx="66.8603" cy="61.2445" rx="1.74343" ry="1.73899" fill="#EBEBEB"/>
<ellipse cx="77.6606" cy="61.2445" rx="1.74343" ry="1.73899" fill="#EBEBEB"/>
<ellipse cx="88.4608" cy="61.2445" rx="1.74343" ry="1.73899" fill="#EBEBEB"/>
<ellipse cx="99.2611" cy="61.2445" rx="1.74343" ry="1.73899" fill="#EBEBEB"/>
<ellipse cx="110.061" cy="61.2445" rx="1.74343" ry="1.73899" fill="#EBEBEB"/>
<ellipse cx="120.862" cy="61.2445" rx="1.74343" ry="1.73899" fill="#EBEBEB"/>
<ellipse cx="131.662" cy="61.2445" rx="1.74343" ry="1.73899" fill="#EBEBEB"/>
<ellipse cx="142.462" cy="61.2445" rx="1.74343" ry="1.73899" fill="#EBEBEB"/>
<ellipse cx="153.262" cy="61.2445" rx="1.74343" ry="1.73899" fill="#EBEBEB"/>
<ellipse cx="164.063" cy="61.2445" rx="1.74343" ry="1.73899" fill="#EBEBEB"/>
<ellipse cx="174.863" cy="61.2445" rx="1.74343" ry="1.73899" fill="#EBEBEB"/>
<ellipse cx="185.663" cy="61.2445" rx="1.74343" ry="1.73899" fill="#EBEBEB"/>
<ellipse cx="196.463" cy="61.2445" rx="1.74343" ry="1.73899" fill="#EBEBEB"/>
<ellipse cx="207.264" cy="61.2445" rx="1.74343" ry="1.73899" fill="#EBEBEB"/>
<ellipse cx="2.05874" cy="71.0405" rx="1.74343" ry="1.73899" fill="#EBEBEB"/>
<ellipse cx="12.859" cy="71.0405" rx="1.74343" ry="1.73899" fill="#EBEBEB"/>
<ellipse cx="23.6593" cy="71.0405" rx="1.74343" ry="1.73899" fill="#EBEBEB"/>
<ellipse cx="34.4595" cy="71.0405" rx="1.74343" ry="1.73899" fill="#EBEBEB"/>
<ellipse cx="45.2598" cy="71.0405" rx="1.74343" ry="1.73899" fill="#EBEBEB"/>
<ellipse cx="56.0601" cy="71.0405" rx="1.74343" ry="1.73899" fill="#EBEBEB"/>
<ellipse cx="66.8603" cy="71.0405" rx="1.74343" ry="1.73899" fill="#EBEBEB"/>
<ellipse cx="77.6606" cy="71.0405" rx="1.74343" ry="1.73899" fill="#EBEBEB"/>
<ellipse cx="88.4608" cy="71.0405" rx="1.74343" ry="1.73899" fill="#EBEBEB"/>
<ellipse cx="99.2611" cy="71.0405" rx="1.74343" ry="1.73899" fill="#EBEBEB"/>
<ellipse cx="110.061" cy="71.0405" rx="1.74343" ry="1.73899" fill="#EBEBEB"/>
<ellipse cx="120.862" cy="71.0405" rx="1.74343" ry="1.73899" fill="#EBEBEB"/>
<ellipse cx="131.662" cy="71.0405" rx="1.74343" ry="1.73899" fill="#EBEBEB"/>
<ellipse cx="142.462" cy="71.0405" rx="1.74343" ry="1.73899" fill="#EBEBEB"/>
<ellipse cx="153.262" cy="71.0405" rx="1.74343" ry="1.73899" fill="#EBEBEB"/>
<ellipse cx="164.063" cy="71.0405" rx="1.74343" ry="1.73899" fill="#EBEBEB"/>
<ellipse cx="174.863" cy="71.0405" rx="1.74343" ry="1.73899" fill="#EBEBEB"/>
<ellipse cx="185.663" cy="71.0405" rx="1.74343" ry="1.73899" fill="#EBEBEB"/>
<ellipse cx="196.463" cy="71.0405" rx="1.74343" ry="1.73899" fill="#EBEBEB"/>
<ellipse cx="207.264" cy="71.0405" rx="1.74343" ry="1.73899" fill="#EBEBEB"/>
<ellipse cx="2.05874" cy="80.8365" rx="1.74343" ry="1.73899" fill="#EBEBEB"/>
<ellipse cx="12.859" cy="80.8365" rx="1.74343" ry="1.73899" fill="#EBEBEB"/>
<ellipse cx="23.6593" cy="80.8365" rx="1.74343" ry="1.73899" fill="#EBEBEB"/>
<ellipse cx="34.4595" cy="80.8365" rx="1.74343" ry="1.73899" fill="#EBEBEB"/>
<ellipse cx="45.2598" cy="80.8365" rx="1.74343" ry="1.73899" fill="#EBEBEB"/>
<ellipse cx="56.0601" cy="80.8365" rx="1.74343" ry="1.73899" fill="#EBEBEB"/>
<ellipse cx="66.8603" cy="80.8365" rx="1.74343" ry="1.73899" fill="#EBEBEB"/>
<ellipse cx="77.6606" cy="80.8365" rx="1.74343" ry="1.73899" fill="#EBEBEB"/>
<ellipse cx="88.4608" cy="80.8365" rx="1.74343" ry="1.73899" fill="#EBEBEB"/>
<ellipse cx="99.2611" cy="80.8365" rx="1.74343" ry="1.73899" fill="#EBEBEB"/>
<ellipse cx="110.061" cy="80.8365" rx="1.74343" ry="1.73899" fill="#EBEBEB"/>
<ellipse cx="120.862" cy="80.8365" rx="1.74343" ry="1.73899" fill="#EBEBEB"/>
<ellipse cx="131.662" cy="80.8365" rx="1.74343" ry="1.73899" fill="#EBEBEB"/>
<ellipse cx="142.462" cy="80.8365" rx="1.74343" ry="1.73899" fill="#EBEBEB"/>
<ellipse cx="153.262" cy="80.8365" rx="1.74343" ry="1.73899" fill="#EBEBEB"/>
<ellipse cx="164.063" cy="80.8365" rx="1.74343" ry="1.73899" fill="#EBEBEB"/>
<ellipse cx="174.863" cy="80.8365" rx="1.74343" ry="1.73899" fill="#EBEBEB"/>
<ellipse cx="185.663" cy="80.8365" rx="1.74343" ry="1.73899" fill="#EBEBEB"/>
<ellipse cx="196.463" cy="80.8365" rx="1.74343" ry="1.73899" fill="#EBEBEB"/>
<ellipse cx="207.264" cy="80.8365" rx="1.74343" ry="1.73899" fill="#EBEBEB"/>
<ellipse cx="2.05874" cy="90.6324" rx="1.74343" ry="1.73899" fill="#EBEBEB"/>
<ellipse cx="12.859" cy="90.6324" rx="1.74343" ry="1.73899" fill="#EBEBEB"/>
<ellipse cx="23.6593" cy="90.6324" rx="1.74343" ry="1.73899" fill="#EBEBEB"/>
<ellipse cx="34.4595" cy="90.6324" rx="1.74343" ry="1.73899" fill="#EBEBEB"/>
<ellipse cx="45.2598" cy="90.6324" rx="1.74343" ry="1.73899" fill="#EBEBEB"/>
<ellipse cx="56.0601" cy="90.6324" rx="1.74343" ry="1.73899" fill="#EBEBEB"/>
<ellipse cx="66.8603" cy="90.6324" rx="1.74343" ry="1.73899" fill="#EBEBEB"/>
<ellipse cx="77.6606" cy="90.6324" rx="1.74343" ry="1.73899" fill="#EBEBEB"/>
<ellipse cx="88.4608" cy="90.6324" rx="1.74343" ry="1.73899" fill="#EBEBEB"/>
<ellipse cx="99.2611" cy="90.6324" rx="1.74343" ry="1.73899" fill="#EBEBEB"/>
<ellipse cx="110.061" cy="90.6324" rx="1.74343" ry="1.73899" fill="#EBEBEB"/>
<ellipse cx="120.862" cy="90.6324" rx="1.74343" ry="1.73899" fill="#EBEBEB"/>
<ellipse cx="131.662" cy="90.6324" rx="1.74343" ry="1.73899" fill="#EBEBEB"/>
<ellipse cx="142.462" cy="90.6324" rx="1.74343" ry="1.73899" fill="#EBEBEB"/>
<ellipse cx="153.262" cy="90.6324" rx="1.74343" ry="1.73899" fill="#EBEBEB"/>
<ellipse cx="164.063" cy="90.6324" rx="1.74343" ry="1.73899" fill="#EBEBEB"/>
<ellipse cx="174.863" cy="90.6324" rx="1.74343" ry="1.73899" fill="#EBEBEB"/>
<ellipse cx="185.663" cy="90.6324" rx="1.74343" ry="1.73899" fill="#EBEBEB"/>
<ellipse cx="196.463" cy="90.6324" rx="1.74343" ry="1.73899" fill="#EBEBEB"/>
<ellipse cx="207.264" cy="90.6324" rx="1.74343" ry="1.73899" fill="#EBEBEB"/>
<ellipse cx="2.05874" cy="100.428" rx="1.74343" ry="1.73899" fill="#EBEBEB"/>
<ellipse cx="12.859" cy="100.428" rx="1.74343" ry="1.73899" fill="#EBEBEB"/>
<ellipse cx="23.6593" cy="100.428" rx="1.74343" ry="1.73899" fill="#EBEBEB"/>
<ellipse cx="34.4595" cy="100.428" rx="1.74343" ry="1.73899" fill="#EBEBEB"/>
<ellipse cx="45.2598" cy="100.428" rx="1.74343" ry="1.73899" fill="#EBEBEB"/>
<ellipse cx="56.0601" cy="100.428" rx="1.74343" ry="1.73899" fill="#EBEBEB"/>
<ellipse cx="66.8603" cy="100.428" rx="1.74343" ry="1.73899" fill="#EBEBEB"/>
<ellipse cx="77.6606" cy="100.428" rx="1.74343" ry="1.73899" fill="#EBEBEB"/>
<ellipse cx="88.4608" cy="100.428" rx="1.74343" ry="1.73899" fill="#EBEBEB"/>
<ellipse cx="99.2611" cy="100.428" rx="1.74343" ry="1.73899" fill="#EBEBEB"/>
<ellipse cx="110.061" cy="100.428" rx="1.74343" ry="1.73899" fill="#EBEBEB"/>
<ellipse cx="120.862" cy="100.428" rx="1.74343" ry="1.73899" fill="#EBEBEB"/>
<ellipse cx="131.662" cy="100.428" rx="1.74343" ry="1.73899" fill="#EBEBEB"/>
<ellipse cx="142.462" cy="100.428" rx="1.74343" ry="1.73899" fill="#EBEBEB"/>
<ellipse cx="153.262" cy="100.428" rx="1.74343" ry="1.73899" fill="#EBEBEB"/>
<ellipse cx="164.063" cy="100.428" rx="1.74343" ry="1.73899" fill="#EBEBEB"/>
<ellipse cx="174.863" cy="100.428" rx="1.74343" ry="1.73899" fill="#EBEBEB"/>
<ellipse cx="185.663" cy="100.428" rx="1.74343" ry="1.73899" fill="#EBEBEB"/>
<ellipse cx="196.463" cy="100.428" rx="1.74343" ry="1.73899" fill="#EBEBEB"/>
<ellipse cx="207.264" cy="100.428" rx="1.74343" ry="1.73899" fill="#EBEBEB"/>
<ellipse cx="2.05874" cy="110.224" rx="1.74343" ry="1.73899" fill="#EBEBEB"/>
<ellipse cx="12.859" cy="110.224" rx="1.74343" ry="1.73899" fill="#EBEBEB"/>
<ellipse cx="23.6593" cy="110.224" rx="1.74343" ry="1.73899" fill="#EBEBEB"/>
<ellipse cx="34.4595" cy="110.224" rx="1.74343" ry="1.73899" fill="#EBEBEB"/>
<ellipse cx="45.2598" cy="110.224" rx="1.74343" ry="1.73899" fill="#EBEBEB"/>
<ellipse cx="56.0601" cy="110.224" rx="1.74343" ry="1.73899" fill="#EBEBEB"/>
<ellipse cx="66.8603" cy="110.224" rx="1.74343" ry="1.73899" fill="#EBEBEB"/>
<ellipse cx="77.6606" cy="110.224" rx="1.74343" ry="1.73899" fill="#EBEBEB"/>
<ellipse cx="88.4608" cy="110.224" rx="1.74343" ry="1.73899" fill="#EBEBEB"/>
<ellipse cx="99.2611" cy="110.224" rx="1.74343" ry="1.73899" fill="#EBEBEB"/>
<ellipse cx="110.061" cy="110.224" rx="1.74343" ry="1.73899" fill="#EBEBEB"/>
<ellipse cx="120.862" cy="110.224" rx="1.74343" ry="1.73899" fill="#EBEBEB"/>
<ellipse cx="131.662" cy="110.224" rx="1.74343" ry="1.73899" fill="#EBEBEB"/>
<ellipse cx="142.462" cy="110.224" rx="1.74343" ry="1.73899" fill="#EBEBEB"/>
<ellipse cx="153.262" cy="110.224" rx="1.74343" ry="1.73899" fill="#EBEBEB"/>
<ellipse cx="164.063" cy="110.224" rx="1.74343" ry="1.73899" fill="#EBEBEB"/>
<ellipse cx="174.863" cy="110.224" rx="1.74343" ry="1.73899" fill="#EBEBEB"/>
<ellipse cx="185.663" cy="110.224" rx="1.74343" ry="1.73899" fill="#EBEBEB"/>
<ellipse cx="196.463" cy="110.224" rx="1.74343" ry="1.73899" fill="#EBEBEB"/>
<ellipse cx="207.264" cy="110.224" rx="1.74343" ry="1.73899" fill="#EBEBEB"/>
<ellipse cx="2.05874" cy="120.02" rx="1.74343" ry="1.73899" fill="#EBEBEB"/>
<ellipse cx="12.859" cy="120.02" rx="1.74343" ry="1.73899" fill="#EBEBEB"/>
<ellipse cx="23.6593" cy="120.02" rx="1.74343" ry="1.73899" fill="#EBEBEB"/>
<ellipse cx="34.4595" cy="120.02" rx="1.74343" ry="1.73899" fill="#EBEBEB"/>
<ellipse cx="45.2598" cy="120.02" rx="1.74343" ry="1.73899" fill="#EBEBEB"/>
<ellipse cx="56.0601" cy="120.02" rx="1.74343" ry="1.73899" fill="#EBEBEB"/>
<ellipse cx="66.8603" cy="120.02" rx="1.74343" ry="1.73899" fill="#EBEBEB"/>
<ellipse cx="77.6606" cy="120.02" rx="1.74343" ry="1.73899" fill="#EBEBEB"/>
<ellipse cx="88.4608" cy="120.02" rx="1.74343" ry="1.73899" fill="#EBEBEB"/>
<ellipse cx="99.2611" cy="120.02" rx="1.74343" ry="1.73899" fill="#EBEBEB"/>
<ellipse cx="110.061" cy="120.02" rx="1.74343" ry="1.73899" fill="#EBEBEB"/>
<ellipse cx="120.862" cy="120.02" rx="1.74343" ry="1.73899" fill="#EBEBEB"/>
<ellipse cx="131.662" cy="120.02" rx="1.74343" ry="1.73899" fill="#EBEBEB"/>
<ellipse cx="142.462" cy="120.02" rx="1.74343" ry="1.73899" fill="#EBEBEB"/>
<ellipse cx="153.262" cy="120.02" rx="1.74343" ry="1.73899" fill="#EBEBEB"/>
<ellipse cx="164.063" cy="120.02" rx="1.74343" ry="1.73899" fill="#EBEBEB"/>
<ellipse cx="174.863" cy="120.02" rx="1.74343" ry="1.73899" fill="#EBEBEB"/>
<ellipse cx="185.663" cy="120.02" rx="1.74343" ry="1.73899" fill="#EBEBEB"/>
<ellipse cx="196.463" cy="120.02" rx="1.74343" ry="1.73899" fill="#EBEBEB"/>
<ellipse cx="207.264" cy="120.02" rx="1.74343" ry="1.73899" fill="#EBEBEB"/>
<ellipse cx="2.05874" cy="129.816" rx="1.74343" ry="1.73899" fill="#EBEBEB"/>
<ellipse cx="12.859" cy="129.816" rx="1.74343" ry="1.73899" fill="#EBEBEB"/>
<ellipse cx="23.6593" cy="129.816" rx="1.74343" ry="1.73899" fill="#EBEBEB"/>
<ellipse cx="34.4595" cy="129.816" rx="1.74343" ry="1.73899" fill="#EBEBEB"/>
<ellipse cx="45.2598" cy="129.816" rx="1.74343" ry="1.73899" fill="#EBEBEB"/>
<ellipse cx="56.0601" cy="129.816" rx="1.74343" ry="1.73899" fill="#EBEBEB"/>
<ellipse cx="66.8603" cy="129.816" rx="1.74343" ry="1.73899" fill="#EBEBEB"/>
<ellipse cx="77.6606" cy="129.816" rx="1.74343" ry="1.73899" fill="#EBEBEB"/>
<ellipse cx="88.4608" cy="129.816" rx="1.74343" ry="1.73899" fill="#EBEBEB"/>
<ellipse cx="99.2611" cy="129.816" rx="1.74343" ry="1.73899" fill="#EBEBEB"/>
<ellipse cx="110.061" cy="129.816" rx="1.74343" ry="1.73899" fill="#EBEBEB"/>
<ellipse cx="120.862" cy="129.816" rx="1.74343" ry="1.73899" fill="#EBEBEB"/>
<ellipse cx="131.662" cy="129.816" rx="1.74343" ry="1.73899" fill="#EBEBEB"/>
<ellipse cx="142.462" cy="129.816" rx="1.74343" ry="1.73899" fill="#EBEBEB"/>
<ellipse cx="153.262" cy="129.816" rx="1.74343" ry="1.73899" fill="#EBEBEB"/>
<ellipse cx="164.063" cy="129.816" rx="1.74343" ry="1.73899" fill="#EBEBEB"/>
<ellipse cx="174.863" cy="129.816" rx="1.74343" ry="1.73899" fill="#EBEBEB"/>
<ellipse cx="185.663" cy="129.816" rx="1.74343" ry="1.73899" fill="#EBEBEB"/>
<ellipse cx="196.463" cy="129.816" rx="1.74343" ry="1.73899" fill="#EBEBEB"/>
<ellipse cx="207.264" cy="129.816" rx="1.74343" ry="1.73899" fill="#EBEBEB"/>
<ellipse cx="2.05874" cy="139.612" rx="1.74343" ry="1.73899" fill="#EBEBEB"/>
<ellipse cx="12.859" cy="139.612" rx="1.74343" ry="1.73899" fill="#EBEBEB"/>
<ellipse cx="23.6593" cy="139.612" rx="1.74343" ry="1.73899" fill="#EBEBEB"/>
<ellipse cx="34.4595" cy="139.612" rx="1.74343" ry="1.73899" fill="#EBEBEB"/>
<ellipse cx="45.2598" cy="139.612" rx="1.74343" ry="1.73899" fill="#EBEBEB"/>
<ellipse cx="56.0601" cy="139.612" rx="1.74343" ry="1.73899" fill="#EBEBEB"/>
<ellipse cx="66.8603" cy="139.612" rx="1.74343" ry="1.73899" fill="#EBEBEB"/>
<ellipse cx="77.6606" cy="139.612" rx="1.74343" ry="1.73899" fill="#EBEBEB"/>
<ellipse cx="88.4608" cy="139.612" rx="1.74343" ry="1.73899" fill="#EBEBEB"/>
<ellipse cx="99.2611" cy="139.612" rx="1.74343" ry="1.73899" fill="#EBEBEB"/>
<ellipse cx="110.061" cy="139.612" rx="1.74343" ry="1.73899" fill="#EBEBEB"/>
<ellipse cx="120.862" cy="139.612" rx="1.74343" ry="1.73899" fill="#EBEBEB"/>
<ellipse cx="131.662" cy="139.612" rx="1.74343" ry="1.73899" fill="#EBEBEB"/>
<ellipse cx="142.462" cy="139.612" rx="1.74343" ry="1.73899" fill="#EBEBEB"/>
<ellipse cx="153.262" cy="139.612" rx="1.74343" ry="1.73899" fill="#EBEBEB"/>
<ellipse cx="164.063" cy="139.612" rx="1.74343" ry="1.73899" fill="#EBEBEB"/>
<ellipse cx="174.863" cy="139.612" rx="1.74343" ry="1.73899" fill="#EBEBEB"/>
<ellipse cx="185.663" cy="139.612" rx="1.74343" ry="1.73899" fill="#EBEBEB"/>
<ellipse cx="196.463" cy="139.612" rx="1.74343" ry="1.73899" fill="#EBEBEB"/>
<ellipse cx="207.264" cy="139.612" rx="1.74343" ry="1.73899" fill="#EBEBEB"/>
<ellipse cx="2.05874" cy="149.408" rx="1.74343" ry="1.73899" fill="#EBEBEB"/>
<ellipse cx="12.859" cy="149.408" rx="1.74343" ry="1.73899" fill="#EBEBEB"/>
<ellipse cx="23.6593" cy="149.408" rx="1.74343" ry="1.73899" fill="#EBEBEB"/>
<ellipse cx="34.4595" cy="149.408" rx="1.74343" ry="1.73899" fill="#EBEBEB"/>
<ellipse cx="45.2598" cy="149.408" rx="1.74343" ry="1.73899" fill="#EBEBEB"/>
<ellipse cx="56.0601" cy="149.408" rx="1.74343" ry="1.73899" fill="#EBEBEB"/>
<ellipse cx="66.8603" cy="149.408" rx="1.74343" ry="1.73899" fill="#EBEBEB"/>
<ellipse cx="77.6606" cy="149.408" rx="1.74343" ry="1.73899" fill="#EBEBEB"/>
<ellipse cx="88.4608" cy="149.408" rx="1.74343" ry="1.73899" fill="#EBEBEB"/>
<ellipse cx="99.2611" cy="149.408" rx="1.74343" ry="1.73899" fill="#EBEBEB"/>
<ellipse cx="110.061" cy="149.408" rx="1.74343" ry="1.73899" fill="#EBEBEB"/>
<ellipse cx="120.862" cy="149.408" rx="1.74343" ry="1.73899" fill="#EBEBEB"/>
<ellipse cx="131.662" cy="149.408" rx="1.74343" ry="1.73899" fill="#EBEBEB"/>
<ellipse cx="142.462" cy="149.408" rx="1.74343" ry="1.73899" fill="#EBEBEB"/>
<ellipse cx="153.262" cy="149.408" rx="1.74343" ry="1.73899" fill="#EBEBEB"/>
<ellipse cx="164.063" cy="149.408" rx="1.74343" ry="1.73899" fill="#EBEBEB"/>
<ellipse cx="174.863" cy="149.408" rx="1.74343" ry="1.73899" fill="#EBEBEB"/>
<ellipse cx="185.663" cy="149.408" rx="1.74343" ry="1.73899" fill="#EBEBEB"/>
<ellipse cx="196.463" cy="149.408" rx="1.74343" ry="1.73899" fill="#EBEBEB"/>
<ellipse cx="207.264" cy="149.408" rx="1.74343" ry="1.73899" fill="#EBEBEB"/>
</svg>
