<svg width="242" height="255" viewBox="0 0 242 255" fill="none" xmlns="http://www.w3.org/2000/svg">
<ellipse cx="2.32311" cy="2.50827" rx="2.01915" ry="2.44431" fill="#EBEBEB"/>
<ellipse cx="14.8314" cy="2.50803" rx="2.01915" ry="2.44431" fill="#EBEBEB"/>
<ellipse cx="27.3397" cy="2.50803" rx="2.01915" ry="2.44431" fill="#EBEBEB"/>
<ellipse cx="39.8481" cy="2.50803" rx="2.01915" ry="2.44431" fill="#EBEBEB"/>
<ellipse cx="52.3564" cy="2.50803" rx="2.01915" ry="2.44431" fill="#EBEBEB"/>
<ellipse cx="64.8647" cy="2.50803" rx="2.01915" ry="2.44431" fill="#EBEBEB"/>
<ellipse cx="77.373" cy="2.50803" rx="2.01915" ry="2.44431" fill="#EBEBEB"/>
<ellipse cx="89.8812" cy="2.50803" rx="2.01915" ry="2.44431" fill="#EBEBEB"/>
<ellipse cx="102.39" cy="2.50803" rx="2.01915" ry="2.44431" fill="#EBEBEB"/>
<ellipse cx="114.898" cy="2.50803" rx="2.01915" ry="2.44431" fill="#EBEBEB"/>
<ellipse cx="127.406" cy="2.50803" rx="2.01915" ry="2.44431" fill="#EBEBEB"/>
<ellipse cx="139.914" cy="2.50803" rx="2.01915" ry="2.44431" fill="#EBEBEB"/>
<ellipse cx="152.423" cy="2.50803" rx="2.01915" ry="2.44431" fill="#EBEBEB"/>
<ellipse cx="164.931" cy="2.50803" rx="2.01915" ry="2.44431" fill="#EBEBEB"/>
<ellipse cx="177.439" cy="2.50803" rx="2.01915" ry="2.44431" fill="#EBEBEB"/>
<ellipse cx="189.948" cy="2.50803" rx="2.01915" ry="2.44431" fill="#EBEBEB"/>
<ellipse cx="202.456" cy="2.50803" rx="2.01915" ry="2.44431" fill="#EBEBEB"/>
<ellipse cx="214.964" cy="2.50803" rx="2.01915" ry="2.44431" fill="#EBEBEB"/>
<ellipse cx="227.473" cy="2.50803" rx="2.01915" ry="2.44431" fill="#EBEBEB"/>
<ellipse cx="239.981" cy="2.50803" rx="2.01915" ry="2.44431" fill="#EBEBEB"/>
<ellipse cx="2.32323" cy="19.1522" rx="2.01915" ry="2.44431" fill="#EBEBEB"/>
<ellipse cx="14.8316" cy="19.1522" rx="2.01915" ry="2.44431" fill="#EBEBEB"/>
<ellipse cx="27.3399" cy="19.1522" rx="2.01915" ry="2.44431" fill="#EBEBEB"/>
<ellipse cx="39.8483" cy="19.1522" rx="2.01915" ry="2.44431" fill="#EBEBEB"/>
<ellipse cx="52.3566" cy="19.1522" rx="2.01915" ry="2.44431" fill="#EBEBEB"/>
<ellipse cx="64.8649" cy="19.1522" rx="2.01915" ry="2.44431" fill="#EBEBEB"/>
<ellipse cx="77.3731" cy="19.1522" rx="2.01915" ry="2.44431" fill="#EBEBEB"/>
<ellipse cx="89.8813" cy="19.1522" rx="2.01915" ry="2.44431" fill="#EBEBEB"/>
<ellipse cx="102.39" cy="19.1522" rx="2.01915" ry="2.44431" fill="#EBEBEB"/>
<ellipse cx="114.898" cy="19.1522" rx="2.01915" ry="2.44431" fill="#EBEBEB"/>
<ellipse cx="127.406" cy="19.1522" rx="2.01915" ry="2.44431" fill="#EBEBEB"/>
<ellipse cx="139.915" cy="19.1522" rx="2.01915" ry="2.44431" fill="#EBEBEB"/>
<ellipse cx="152.423" cy="19.1522" rx="2.01915" ry="2.44431" fill="#EBEBEB"/>
<ellipse cx="164.931" cy="19.1522" rx="2.01915" ry="2.44431" fill="#EBEBEB"/>
<ellipse cx="177.439" cy="19.1522" rx="2.01915" ry="2.44431" fill="#EBEBEB"/>
<ellipse cx="189.948" cy="19.1522" rx="2.01915" ry="2.44431" fill="#EBEBEB"/>
<ellipse cx="202.456" cy="19.1522" rx="2.01915" ry="2.44431" fill="#EBEBEB"/>
<ellipse cx="214.964" cy="19.1522" rx="2.01915" ry="2.44431" fill="#EBEBEB"/>
<ellipse cx="227.473" cy="19.1522" rx="2.01915" ry="2.44431" fill="#EBEBEB"/>
<ellipse cx="239.981" cy="19.1522" rx="2.01915" ry="2.44431" fill="#EBEBEB"/>
<ellipse cx="2.32323" cy="35.796" rx="2.01915" ry="2.44431" fill="#EBEBEB"/>
<ellipse cx="14.8316" cy="35.796" rx="2.01915" ry="2.44431" fill="#EBEBEB"/>
<ellipse cx="27.3399" cy="35.796" rx="2.01915" ry="2.44431" fill="#EBEBEB"/>
<ellipse cx="39.8483" cy="35.796" rx="2.01915" ry="2.44431" fill="#EBEBEB"/>
<ellipse cx="52.3566" cy="35.796" rx="2.01915" ry="2.44431" fill="#EBEBEB"/>
<ellipse cx="64.8649" cy="35.796" rx="2.01915" ry="2.44431" fill="#EBEBEB"/>
<ellipse cx="77.3731" cy="35.796" rx="2.01915" ry="2.44431" fill="#EBEBEB"/>
<ellipse cx="89.8813" cy="35.796" rx="2.01915" ry="2.44431" fill="#EBEBEB"/>
<ellipse cx="102.39" cy="35.796" rx="2.01915" ry="2.44431" fill="#EBEBEB"/>
<ellipse cx="114.898" cy="35.796" rx="2.01915" ry="2.44431" fill="#EBEBEB"/>
<ellipse cx="127.406" cy="35.796" rx="2.01915" ry="2.44431" fill="#EBEBEB"/>
<ellipse cx="139.915" cy="35.796" rx="2.01915" ry="2.44431" fill="#EBEBEB"/>
<ellipse cx="152.423" cy="35.796" rx="2.01915" ry="2.44431" fill="#EBEBEB"/>
<ellipse cx="164.931" cy="35.796" rx="2.01915" ry="2.44431" fill="#EBEBEB"/>
<ellipse cx="177.439" cy="35.796" rx="2.01915" ry="2.44431" fill="#EBEBEB"/>
<ellipse cx="189.948" cy="35.796" rx="2.01915" ry="2.44431" fill="#EBEBEB"/>
<ellipse cx="202.456" cy="35.796" rx="2.01915" ry="2.44431" fill="#EBEBEB"/>
<ellipse cx="214.964" cy="35.796" rx="2.01915" ry="2.44431" fill="#EBEBEB"/>
<ellipse cx="227.473" cy="35.796" rx="2.01915" ry="2.44431" fill="#EBEBEB"/>
<ellipse cx="239.981" cy="35.796" rx="2.01915" ry="2.44431" fill="#EBEBEB"/>
<ellipse cx="2.32323" cy="52.4398" rx="2.01915" ry="2.44431" fill="#EBEBEB"/>
<ellipse cx="14.8316" cy="52.4398" rx="2.01915" ry="2.44431" fill="#EBEBEB"/>
<ellipse cx="27.3399" cy="52.4398" rx="2.01915" ry="2.44431" fill="#EBEBEB"/>
<ellipse cx="39.8483" cy="52.4398" rx="2.01915" ry="2.44431" fill="#EBEBEB"/>
<ellipse cx="52.3566" cy="52.4398" rx="2.01915" ry="2.44431" fill="#EBEBEB"/>
<ellipse cx="64.8649" cy="52.4398" rx="2.01915" ry="2.44431" fill="#EBEBEB"/>
<ellipse cx="77.3731" cy="52.4398" rx="2.01915" ry="2.44431" fill="#EBEBEB"/>
<ellipse cx="89.8813" cy="52.4398" rx="2.01915" ry="2.44431" fill="#EBEBEB"/>
<ellipse cx="102.39" cy="52.4398" rx="2.01915" ry="2.44431" fill="#EBEBEB"/>
<ellipse cx="114.898" cy="52.4398" rx="2.01915" ry="2.44431" fill="#EBEBEB"/>
<ellipse cx="127.406" cy="52.4398" rx="2.01915" ry="2.44431" fill="#EBEBEB"/>
<ellipse cx="139.915" cy="52.4398" rx="2.01915" ry="2.44431" fill="#EBEBEB"/>
<ellipse cx="152.423" cy="52.4398" rx="2.01915" ry="2.44431" fill="#EBEBEB"/>
<ellipse cx="164.931" cy="52.4398" rx="2.01915" ry="2.44431" fill="#EBEBEB"/>
<ellipse cx="177.439" cy="52.4398" rx="2.01915" ry="2.44431" fill="#EBEBEB"/>
<ellipse cx="189.948" cy="52.4398" rx="2.01915" ry="2.44431" fill="#EBEBEB"/>
<ellipse cx="202.456" cy="52.4398" rx="2.01915" ry="2.44431" fill="#EBEBEB"/>
<ellipse cx="214.964" cy="52.4398" rx="2.01915" ry="2.44431" fill="#EBEBEB"/>
<ellipse cx="227.473" cy="52.4398" rx="2.01915" ry="2.44431" fill="#EBEBEB"/>
<ellipse cx="239.981" cy="52.4398" rx="2.01915" ry="2.44431" fill="#EBEBEB"/>
<ellipse cx="2.32323" cy="69.0836" rx="2.01915" ry="2.44431" fill="#EBEBEB"/>
<ellipse cx="14.8316" cy="69.0836" rx="2.01915" ry="2.44431" fill="#EBEBEB"/>
<ellipse cx="27.3399" cy="69.0836" rx="2.01915" ry="2.44431" fill="#EBEBEB"/>
<ellipse cx="39.8483" cy="69.0836" rx="2.01915" ry="2.44431" fill="#EBEBEB"/>
<ellipse cx="52.3566" cy="69.0836" rx="2.01915" ry="2.44431" fill="#EBEBEB"/>
<ellipse cx="64.8649" cy="69.0836" rx="2.01915" ry="2.44431" fill="#EBEBEB"/>
<ellipse cx="77.3731" cy="69.0836" rx="2.01915" ry="2.44431" fill="#EBEBEB"/>
<ellipse cx="89.8813" cy="69.0836" rx="2.01915" ry="2.44431" fill="#EBEBEB"/>
<ellipse cx="102.39" cy="69.0836" rx="2.01915" ry="2.44431" fill="#EBEBEB"/>
<ellipse cx="114.898" cy="69.0836" rx="2.01915" ry="2.44431" fill="#EBEBEB"/>
<ellipse cx="127.406" cy="69.0836" rx="2.01915" ry="2.44431" fill="#EBEBEB"/>
<ellipse cx="139.915" cy="69.0836" rx="2.01915" ry="2.44431" fill="#EBEBEB"/>
<ellipse cx="152.423" cy="69.0836" rx="2.01915" ry="2.44431" fill="#EBEBEB"/>
<ellipse cx="164.931" cy="69.0836" rx="2.01915" ry="2.44431" fill="#EBEBEB"/>
<ellipse cx="177.439" cy="69.0836" rx="2.01915" ry="2.44431" fill="#EBEBEB"/>
<ellipse cx="189.948" cy="69.0836" rx="2.01915" ry="2.44431" fill="#EBEBEB"/>
<ellipse cx="202.456" cy="69.0836" rx="2.01915" ry="2.44431" fill="#EBEBEB"/>
<ellipse cx="214.964" cy="69.0836" rx="2.01915" ry="2.44431" fill="#EBEBEB"/>
<ellipse cx="227.473" cy="69.0836" rx="2.01915" ry="2.44431" fill="#EBEBEB"/>
<ellipse cx="239.981" cy="69.0836" rx="2.01915" ry="2.44431" fill="#EBEBEB"/>
<ellipse cx="2.32323" cy="85.7275" rx="2.01915" ry="2.44431" fill="#EBEBEB"/>
<ellipse cx="14.8316" cy="85.7275" rx="2.01915" ry="2.44431" fill="#EBEBEB"/>
<ellipse cx="27.3399" cy="85.7275" rx="2.01915" ry="2.44431" fill="#EBEBEB"/>
<ellipse cx="39.8483" cy="85.7275" rx="2.01915" ry="2.44431" fill="#EBEBEB"/>
<ellipse cx="52.3566" cy="85.7275" rx="2.01915" ry="2.44431" fill="#EBEBEB"/>
<ellipse cx="64.8649" cy="85.7275" rx="2.01915" ry="2.44431" fill="#EBEBEB"/>
<ellipse cx="77.3731" cy="85.7275" rx="2.01915" ry="2.44431" fill="#EBEBEB"/>
<ellipse cx="89.8813" cy="85.7275" rx="2.01915" ry="2.44431" fill="#EBEBEB"/>
<ellipse cx="102.39" cy="85.7275" rx="2.01915" ry="2.44431" fill="#EBEBEB"/>
<ellipse cx="114.898" cy="85.7275" rx="2.01915" ry="2.44431" fill="#EBEBEB"/>
<ellipse cx="127.406" cy="85.7275" rx="2.01915" ry="2.44431" fill="#EBEBEB"/>
<ellipse cx="139.915" cy="85.7275" rx="2.01915" ry="2.44431" fill="#EBEBEB"/>
<ellipse cx="152.423" cy="85.7275" rx="2.01915" ry="2.44431" fill="#EBEBEB"/>
<ellipse cx="164.931" cy="85.7275" rx="2.01915" ry="2.44431" fill="#EBEBEB"/>
<ellipse cx="177.439" cy="85.7275" rx="2.01915" ry="2.44431" fill="#EBEBEB"/>
<ellipse cx="189.948" cy="85.7275" rx="2.01915" ry="2.44431" fill="#EBEBEB"/>
<ellipse cx="202.456" cy="85.7275" rx="2.01915" ry="2.44431" fill="#EBEBEB"/>
<ellipse cx="214.964" cy="85.7275" rx="2.01915" ry="2.44431" fill="#EBEBEB"/>
<ellipse cx="227.473" cy="85.7275" rx="2.01915" ry="2.44431" fill="#EBEBEB"/>
<ellipse cx="239.981" cy="85.7275" rx="2.01915" ry="2.44431" fill="#EBEBEB"/>
<ellipse cx="2.32323" cy="102.371" rx="2.01915" ry="2.44431" fill="#EBEBEB"/>
<ellipse cx="14.8316" cy="102.371" rx="2.01915" ry="2.44431" fill="#EBEBEB"/>
<ellipse cx="27.3399" cy="102.371" rx="2.01915" ry="2.44431" fill="#EBEBEB"/>
<ellipse cx="39.8483" cy="102.371" rx="2.01915" ry="2.44431" fill="#EBEBEB"/>
<ellipse cx="52.3566" cy="102.371" rx="2.01915" ry="2.44431" fill="#EBEBEB"/>
<ellipse cx="64.8649" cy="102.371" rx="2.01915" ry="2.44431" fill="#EBEBEB"/>
<ellipse cx="77.3731" cy="102.371" rx="2.01915" ry="2.44431" fill="#EBEBEB"/>
<ellipse cx="89.8813" cy="102.371" rx="2.01915" ry="2.44431" fill="#EBEBEB"/>
<ellipse cx="102.39" cy="102.371" rx="2.01915" ry="2.44431" fill="#EBEBEB"/>
<ellipse cx="114.898" cy="102.371" rx="2.01915" ry="2.44431" fill="#EBEBEB"/>
<ellipse cx="127.406" cy="102.371" rx="2.01915" ry="2.44431" fill="#EBEBEB"/>
<ellipse cx="139.915" cy="102.371" rx="2.01915" ry="2.44431" fill="#EBEBEB"/>
<ellipse cx="152.423" cy="102.371" rx="2.01915" ry="2.44431" fill="#EBEBEB"/>
<ellipse cx="164.931" cy="102.371" rx="2.01915" ry="2.44431" fill="#EBEBEB"/>
<ellipse cx="177.439" cy="102.371" rx="2.01915" ry="2.44431" fill="#EBEBEB"/>
<ellipse cx="189.948" cy="102.371" rx="2.01915" ry="2.44431" fill="#EBEBEB"/>
<ellipse cx="202.456" cy="102.371" rx="2.01915" ry="2.44431" fill="#EBEBEB"/>
<ellipse cx="214.964" cy="102.371" rx="2.01915" ry="2.44431" fill="#EBEBEB"/>
<ellipse cx="227.473" cy="102.371" rx="2.01915" ry="2.44431" fill="#EBEBEB"/>
<ellipse cx="239.981" cy="102.371" rx="2.01915" ry="2.44431" fill="#EBEBEB"/>
<ellipse cx="2.32323" cy="119.015" rx="2.01915" ry="2.44431" fill="#EBEBEB"/>
<ellipse cx="14.8316" cy="119.015" rx="2.01915" ry="2.44431" fill="#EBEBEB"/>
<ellipse cx="27.3399" cy="119.015" rx="2.01915" ry="2.44431" fill="#EBEBEB"/>
<ellipse cx="39.8483" cy="119.015" rx="2.01915" ry="2.44431" fill="#EBEBEB"/>
<ellipse cx="52.3566" cy="119.015" rx="2.01915" ry="2.44431" fill="#EBEBEB"/>
<ellipse cx="64.8649" cy="119.015" rx="2.01915" ry="2.44431" fill="#EBEBEB"/>
<ellipse cx="77.3731" cy="119.015" rx="2.01915" ry="2.44431" fill="#EBEBEB"/>
<ellipse cx="89.8813" cy="119.015" rx="2.01915" ry="2.44431" fill="#EBEBEB"/>
<ellipse cx="102.39" cy="119.015" rx="2.01915" ry="2.44431" fill="#EBEBEB"/>
<ellipse cx="114.898" cy="119.015" rx="2.01915" ry="2.44431" fill="#EBEBEB"/>
<ellipse cx="127.406" cy="119.015" rx="2.01915" ry="2.44431" fill="#EBEBEB"/>
<ellipse cx="139.915" cy="119.015" rx="2.01915" ry="2.44431" fill="#EBEBEB"/>
<ellipse cx="152.423" cy="119.015" rx="2.01915" ry="2.44431" fill="#EBEBEB"/>
<ellipse cx="164.931" cy="119.015" rx="2.01915" ry="2.44431" fill="#EBEBEB"/>
<ellipse cx="177.439" cy="119.015" rx="2.01915" ry="2.44431" fill="#EBEBEB"/>
<ellipse cx="189.948" cy="119.015" rx="2.01915" ry="2.44431" fill="#EBEBEB"/>
<ellipse cx="202.456" cy="119.015" rx="2.01915" ry="2.44431" fill="#EBEBEB"/>
<ellipse cx="214.964" cy="119.015" rx="2.01915" ry="2.44431" fill="#EBEBEB"/>
<ellipse cx="227.473" cy="119.015" rx="2.01915" ry="2.44431" fill="#EBEBEB"/>
<ellipse cx="239.981" cy="119.015" rx="2.01915" ry="2.44431" fill="#EBEBEB"/>
<ellipse cx="2.32323" cy="135.659" rx="2.01915" ry="2.44431" fill="#EBEBEB"/>
<ellipse cx="14.8316" cy="135.659" rx="2.01915" ry="2.44431" fill="#EBEBEB"/>
<ellipse cx="27.3399" cy="135.659" rx="2.01915" ry="2.44431" fill="#EBEBEB"/>
<ellipse cx="39.8483" cy="135.659" rx="2.01915" ry="2.44431" fill="#EBEBEB"/>
<ellipse cx="52.3566" cy="135.659" rx="2.01915" ry="2.44431" fill="#EBEBEB"/>
<ellipse cx="64.8649" cy="135.659" rx="2.01915" ry="2.44431" fill="#EBEBEB"/>
<ellipse cx="77.3731" cy="135.659" rx="2.01915" ry="2.44431" fill="#EBEBEB"/>
<ellipse cx="89.8813" cy="135.659" rx="2.01915" ry="2.44431" fill="#EBEBEB"/>
<ellipse cx="102.39" cy="135.659" rx="2.01915" ry="2.44431" fill="#EBEBEB"/>
<ellipse cx="114.898" cy="135.659" rx="2.01915" ry="2.44431" fill="#EBEBEB"/>
<ellipse cx="127.406" cy="135.659" rx="2.01915" ry="2.44431" fill="#EBEBEB"/>
<ellipse cx="139.915" cy="135.659" rx="2.01915" ry="2.44431" fill="#EBEBEB"/>
<ellipse cx="152.423" cy="135.659" rx="2.01915" ry="2.44431" fill="#EBEBEB"/>
<ellipse cx="164.931" cy="135.659" rx="2.01915" ry="2.44431" fill="#EBEBEB"/>
<ellipse cx="177.439" cy="135.659" rx="2.01915" ry="2.44431" fill="#EBEBEB"/>
<ellipse cx="189.948" cy="135.659" rx="2.01915" ry="2.44431" fill="#EBEBEB"/>
<ellipse cx="202.456" cy="135.659" rx="2.01915" ry="2.44431" fill="#EBEBEB"/>
<ellipse cx="214.964" cy="135.659" rx="2.01915" ry="2.44431" fill="#EBEBEB"/>
<ellipse cx="227.473" cy="135.659" rx="2.01915" ry="2.44431" fill="#EBEBEB"/>
<ellipse cx="239.981" cy="135.659" rx="2.01915" ry="2.44431" fill="#EBEBEB"/>
<ellipse cx="2.32323" cy="152.303" rx="2.01915" ry="2.44431" fill="#EBEBEB"/>
<ellipse cx="14.8316" cy="152.303" rx="2.01915" ry="2.44431" fill="#EBEBEB"/>
<ellipse cx="27.3399" cy="152.303" rx="2.01915" ry="2.44431" fill="#EBEBEB"/>
<ellipse cx="39.8483" cy="152.303" rx="2.01915" ry="2.44431" fill="#EBEBEB"/>
<ellipse cx="52.3566" cy="152.303" rx="2.01915" ry="2.44431" fill="#EBEBEB"/>
<ellipse cx="64.8649" cy="152.303" rx="2.01915" ry="2.44431" fill="#EBEBEB"/>
<ellipse cx="77.3731" cy="152.303" rx="2.01915" ry="2.44431" fill="#EBEBEB"/>
<ellipse cx="89.8813" cy="152.303" rx="2.01915" ry="2.44431" fill="#EBEBEB"/>
<ellipse cx="102.39" cy="152.303" rx="2.01915" ry="2.44431" fill="#EBEBEB"/>
<ellipse cx="114.898" cy="152.303" rx="2.01915" ry="2.44431" fill="#EBEBEB"/>
<ellipse cx="127.406" cy="152.303" rx="2.01915" ry="2.44431" fill="#EBEBEB"/>
<ellipse cx="139.915" cy="152.303" rx="2.01915" ry="2.44431" fill="#EBEBEB"/>
<ellipse cx="152.423" cy="152.303" rx="2.01915" ry="2.44431" fill="#EBEBEB"/>
<ellipse cx="164.931" cy="152.303" rx="2.01915" ry="2.44431" fill="#EBEBEB"/>
<ellipse cx="177.439" cy="152.303" rx="2.01915" ry="2.44431" fill="#EBEBEB"/>
<ellipse cx="189.948" cy="152.303" rx="2.01915" ry="2.44431" fill="#EBEBEB"/>
<ellipse cx="202.456" cy="152.303" rx="2.01915" ry="2.44431" fill="#EBEBEB"/>
<ellipse cx="214.964" cy="152.303" rx="2.01915" ry="2.44431" fill="#EBEBEB"/>
<ellipse cx="227.473" cy="152.303" rx="2.01915" ry="2.44431" fill="#EBEBEB"/>
<ellipse cx="239.981" cy="152.303" rx="2.01915" ry="2.44431" fill="#EBEBEB"/>
<ellipse cx="2.32323" cy="168.947" rx="2.01915" ry="2.44431" fill="#EBEBEB"/>
<ellipse cx="14.8316" cy="168.947" rx="2.01915" ry="2.44431" fill="#EBEBEB"/>
<ellipse cx="27.3399" cy="168.947" rx="2.01915" ry="2.44431" fill="#EBEBEB"/>
<ellipse cx="39.8483" cy="168.947" rx="2.01915" ry="2.44431" fill="#EBEBEB"/>
<ellipse cx="52.3566" cy="168.947" rx="2.01915" ry="2.44431" fill="#EBEBEB"/>
<ellipse cx="64.8649" cy="168.947" rx="2.01915" ry="2.44431" fill="#EBEBEB"/>
<ellipse cx="77.3731" cy="168.947" rx="2.01915" ry="2.44431" fill="#EBEBEB"/>
<ellipse cx="89.8813" cy="168.947" rx="2.01915" ry="2.44431" fill="#EBEBEB"/>
<ellipse cx="102.39" cy="168.947" rx="2.01915" ry="2.44431" fill="#EBEBEB"/>
<ellipse cx="114.898" cy="168.947" rx="2.01915" ry="2.44431" fill="#EBEBEB"/>
<ellipse cx="127.406" cy="168.947" rx="2.01915" ry="2.44431" fill="#EBEBEB"/>
<ellipse cx="139.915" cy="168.947" rx="2.01915" ry="2.44431" fill="#EBEBEB"/>
<ellipse cx="152.423" cy="168.947" rx="2.01915" ry="2.44431" fill="#EBEBEB"/>
<ellipse cx="164.931" cy="168.947" rx="2.01915" ry="2.44431" fill="#EBEBEB"/>
<ellipse cx="177.439" cy="168.947" rx="2.01915" ry="2.44431" fill="#EBEBEB"/>
<ellipse cx="189.948" cy="168.947" rx="2.01915" ry="2.44431" fill="#EBEBEB"/>
<ellipse cx="202.456" cy="168.947" rx="2.01915" ry="2.44431" fill="#EBEBEB"/>
<ellipse cx="214.964" cy="168.947" rx="2.01915" ry="2.44431" fill="#EBEBEB"/>
<ellipse cx="227.473" cy="168.947" rx="2.01915" ry="2.44431" fill="#EBEBEB"/>
<ellipse cx="239.981" cy="168.947" rx="2.01915" ry="2.44431" fill="#EBEBEB"/>
<ellipse cx="2.32323" cy="185.59" rx="2.01915" ry="2.44431" fill="#EBEBEB"/>
<ellipse cx="14.8316" cy="185.59" rx="2.01915" ry="2.44431" fill="#EBEBEB"/>
<ellipse cx="27.3399" cy="185.59" rx="2.01915" ry="2.44431" fill="#EBEBEB"/>
<ellipse cx="39.8483" cy="185.59" rx="2.01915" ry="2.44431" fill="#EBEBEB"/>
<ellipse cx="52.3566" cy="185.59" rx="2.01915" ry="2.44431" fill="#EBEBEB"/>
<ellipse cx="64.8649" cy="185.59" rx="2.01915" ry="2.44431" fill="#EBEBEB"/>
<ellipse cx="77.3731" cy="185.59" rx="2.01915" ry="2.44431" fill="#EBEBEB"/>
<ellipse cx="89.8813" cy="185.59" rx="2.01915" ry="2.44431" fill="#EBEBEB"/>
<ellipse cx="102.39" cy="185.59" rx="2.01915" ry="2.44431" fill="#EBEBEB"/>
<ellipse cx="114.898" cy="185.59" rx="2.01915" ry="2.44431" fill="#EBEBEB"/>
<ellipse cx="127.406" cy="185.59" rx="2.01915" ry="2.44431" fill="#EBEBEB"/>
<ellipse cx="139.915" cy="185.59" rx="2.01915" ry="2.44431" fill="#EBEBEB"/>
<ellipse cx="152.423" cy="185.59" rx="2.01915" ry="2.44431" fill="#EBEBEB"/>
<ellipse cx="164.931" cy="185.59" rx="2.01915" ry="2.44431" fill="#EBEBEB"/>
<ellipse cx="177.439" cy="185.59" rx="2.01915" ry="2.44431" fill="#EBEBEB"/>
<ellipse cx="189.948" cy="185.59" rx="2.01915" ry="2.44431" fill="#EBEBEB"/>
<ellipse cx="202.456" cy="185.59" rx="2.01915" ry="2.44431" fill="#EBEBEB"/>
<ellipse cx="214.964" cy="185.59" rx="2.01915" ry="2.44431" fill="#EBEBEB"/>
<ellipse cx="227.473" cy="185.59" rx="2.01915" ry="2.44431" fill="#EBEBEB"/>
<ellipse cx="239.981" cy="185.59" rx="2.01915" ry="2.44431" fill="#EBEBEB"/>
<ellipse cx="2.32323" cy="202.234" rx="2.01915" ry="2.44431" fill="#EBEBEB"/>
<ellipse cx="14.8316" cy="202.234" rx="2.01915" ry="2.44431" fill="#EBEBEB"/>
<ellipse cx="27.3399" cy="202.234" rx="2.01915" ry="2.44431" fill="#EBEBEB"/>
<ellipse cx="39.8483" cy="202.234" rx="2.01915" ry="2.44431" fill="#EBEBEB"/>
<ellipse cx="52.3566" cy="202.234" rx="2.01915" ry="2.44431" fill="#EBEBEB"/>
<ellipse cx="64.8649" cy="202.234" rx="2.01915" ry="2.44431" fill="#EBEBEB"/>
<ellipse cx="77.3731" cy="202.234" rx="2.01915" ry="2.44431" fill="#EBEBEB"/>
<ellipse cx="89.8813" cy="202.234" rx="2.01915" ry="2.44431" fill="#EBEBEB"/>
<ellipse cx="102.39" cy="202.234" rx="2.01915" ry="2.44431" fill="#EBEBEB"/>
<ellipse cx="114.898" cy="202.234" rx="2.01915" ry="2.44431" fill="#EBEBEB"/>
<ellipse cx="127.406" cy="202.234" rx="2.01915" ry="2.44431" fill="#EBEBEB"/>
<ellipse cx="139.915" cy="202.234" rx="2.01915" ry="2.44431" fill="#EBEBEB"/>
<ellipse cx="152.423" cy="202.234" rx="2.01915" ry="2.44431" fill="#EBEBEB"/>
<ellipse cx="164.931" cy="202.234" rx="2.01915" ry="2.44431" fill="#EBEBEB"/>
<ellipse cx="177.439" cy="202.234" rx="2.01915" ry="2.44431" fill="#EBEBEB"/>
<ellipse cx="189.948" cy="202.234" rx="2.01915" ry="2.44431" fill="#EBEBEB"/>
<ellipse cx="202.456" cy="202.234" rx="2.01915" ry="2.44431" fill="#EBEBEB"/>
<ellipse cx="214.964" cy="202.234" rx="2.01915" ry="2.44431" fill="#EBEBEB"/>
<ellipse cx="227.473" cy="202.234" rx="2.01915" ry="2.44431" fill="#EBEBEB"/>
<ellipse cx="239.981" cy="202.234" rx="2.01915" ry="2.44431" fill="#EBEBEB"/>
<ellipse cx="2.32323" cy="218.878" rx="2.01915" ry="2.44431" fill="#EBEBEB"/>
<ellipse cx="14.8316" cy="218.878" rx="2.01915" ry="2.44431" fill="#EBEBEB"/>
<ellipse cx="27.3399" cy="218.878" rx="2.01915" ry="2.44431" fill="#EBEBEB"/>
<ellipse cx="39.8483" cy="218.878" rx="2.01915" ry="2.44431" fill="#EBEBEB"/>
<ellipse cx="52.3566" cy="218.878" rx="2.01915" ry="2.44431" fill="#EBEBEB"/>
<ellipse cx="64.8649" cy="218.878" rx="2.01915" ry="2.44431" fill="#EBEBEB"/>
<ellipse cx="77.3731" cy="218.878" rx="2.01915" ry="2.44431" fill="#EBEBEB"/>
<ellipse cx="89.8813" cy="218.878" rx="2.01915" ry="2.44431" fill="#EBEBEB"/>
<ellipse cx="102.39" cy="218.878" rx="2.01915" ry="2.44431" fill="#EBEBEB"/>
<ellipse cx="114.898" cy="218.878" rx="2.01915" ry="2.44431" fill="#EBEBEB"/>
<ellipse cx="127.406" cy="218.878" rx="2.01915" ry="2.44431" fill="#EBEBEB"/>
<ellipse cx="139.915" cy="218.878" rx="2.01915" ry="2.44431" fill="#EBEBEB"/>
<ellipse cx="152.423" cy="218.878" rx="2.01915" ry="2.44431" fill="#EBEBEB"/>
<ellipse cx="164.931" cy="218.878" rx="2.01915" ry="2.44431" fill="#EBEBEB"/>
<ellipse cx="177.439" cy="218.878" rx="2.01915" ry="2.44431" fill="#EBEBEB"/>
<ellipse cx="189.948" cy="218.878" rx="2.01915" ry="2.44431" fill="#EBEBEB"/>
<ellipse cx="202.456" cy="218.878" rx="2.01915" ry="2.44431" fill="#EBEBEB"/>
<ellipse cx="214.964" cy="218.878" rx="2.01915" ry="2.44431" fill="#EBEBEB"/>
<ellipse cx="227.473" cy="218.878" rx="2.01915" ry="2.44431" fill="#EBEBEB"/>
<ellipse cx="239.981" cy="218.878" rx="2.01915" ry="2.44431" fill="#EBEBEB"/>
<ellipse cx="2.32323" cy="235.522" rx="2.01915" ry="2.44431" fill="#EBEBEB"/>
<ellipse cx="14.8316" cy="235.522" rx="2.01915" ry="2.44431" fill="#EBEBEB"/>
<ellipse cx="27.3399" cy="235.522" rx="2.01915" ry="2.44431" fill="#EBEBEB"/>
<ellipse cx="39.8483" cy="235.522" rx="2.01915" ry="2.44431" fill="#EBEBEB"/>
<ellipse cx="52.3566" cy="235.522" rx="2.01915" ry="2.44431" fill="#EBEBEB"/>
<ellipse cx="64.8649" cy="235.522" rx="2.01915" ry="2.44431" fill="#EBEBEB"/>
<ellipse cx="77.3731" cy="235.522" rx="2.01915" ry="2.44431" fill="#EBEBEB"/>
<ellipse cx="89.8813" cy="235.522" rx="2.01915" ry="2.44431" fill="#EBEBEB"/>
<ellipse cx="102.39" cy="235.522" rx="2.01915" ry="2.44431" fill="#EBEBEB"/>
<ellipse cx="114.898" cy="235.522" rx="2.01915" ry="2.44431" fill="#EBEBEB"/>
<ellipse cx="127.406" cy="235.522" rx="2.01915" ry="2.44431" fill="#EBEBEB"/>
<ellipse cx="139.915" cy="235.522" rx="2.01915" ry="2.44431" fill="#EBEBEB"/>
<ellipse cx="152.423" cy="235.522" rx="2.01915" ry="2.44431" fill="#EBEBEB"/>
<ellipse cx="164.931" cy="235.522" rx="2.01915" ry="2.44431" fill="#EBEBEB"/>
<ellipse cx="177.439" cy="235.522" rx="2.01915" ry="2.44431" fill="#EBEBEB"/>
<ellipse cx="189.948" cy="235.522" rx="2.01915" ry="2.44431" fill="#EBEBEB"/>
<ellipse cx="202.456" cy="235.522" rx="2.01915" ry="2.44431" fill="#EBEBEB"/>
<ellipse cx="214.964" cy="235.522" rx="2.01915" ry="2.44431" fill="#EBEBEB"/>
<ellipse cx="227.473" cy="235.522" rx="2.01915" ry="2.44431" fill="#EBEBEB"/>
<ellipse cx="239.981" cy="235.522" rx="2.01915" ry="2.44431" fill="#EBEBEB"/>
<ellipse cx="2.32323" cy="252.166" rx="2.01915" ry="2.44431" fill="#EBEBEB"/>
<ellipse cx="14.8316" cy="252.166" rx="2.01915" ry="2.44431" fill="#EBEBEB"/>
<ellipse cx="27.3399" cy="252.166" rx="2.01915" ry="2.44431" fill="#EBEBEB"/>
<ellipse cx="39.8483" cy="252.166" rx="2.01915" ry="2.44431" fill="#EBEBEB"/>
<ellipse cx="52.3566" cy="252.166" rx="2.01915" ry="2.44431" fill="#EBEBEB"/>
<ellipse cx="64.8649" cy="252.166" rx="2.01915" ry="2.44431" fill="#EBEBEB"/>
<ellipse cx="77.3731" cy="252.166" rx="2.01915" ry="2.44431" fill="#EBEBEB"/>
<ellipse cx="89.8813" cy="252.166" rx="2.01915" ry="2.44431" fill="#EBEBEB"/>
<ellipse cx="102.39" cy="252.166" rx="2.01915" ry="2.44431" fill="#EBEBEB"/>
<ellipse cx="114.898" cy="252.166" rx="2.01915" ry="2.44431" fill="#EBEBEB"/>
<ellipse cx="127.406" cy="252.166" rx="2.01915" ry="2.44431" fill="#EBEBEB"/>
<ellipse cx="139.915" cy="252.166" rx="2.01915" ry="2.44431" fill="#EBEBEB"/>
<ellipse cx="152.423" cy="252.166" rx="2.01915" ry="2.44431" fill="#EBEBEB"/>
<ellipse cx="164.931" cy="252.166" rx="2.01915" ry="2.44431" fill="#EBEBEB"/>
<ellipse cx="177.439" cy="252.166" rx="2.01915" ry="2.44431" fill="#EBEBEB"/>
<ellipse cx="189.948" cy="252.166" rx="2.01915" ry="2.44431" fill="#EBEBEB"/>
<ellipse cx="202.456" cy="252.166" rx="2.01915" ry="2.44431" fill="#EBEBEB"/>
<ellipse cx="214.964" cy="252.166" rx="2.01915" ry="2.44431" fill="#EBEBEB"/>
<ellipse cx="227.473" cy="252.166" rx="2.01915" ry="2.44431" fill="#EBEBEB"/>
<ellipse cx="239.981" cy="252.166" rx="2.01915" ry="2.44431" fill="#EBEBEB"/>
</svg>
