<svg width="209" height="151" viewBox="0 0 209 151" fill="none" xmlns="http://www.w3.org/2000/svg">
<ellipse cx="1.74343" cy="1.84543" rx="1.74343" ry="1.73899" fill="#EBEBEB"/>
<ellipse cx="12.5437" cy="1.84543" rx="1.74343" ry="1.73899" fill="#EBEBEB"/>
<ellipse cx="23.344" cy="1.84543" rx="1.74343" ry="1.73899" fill="#EBEBEB"/>
<ellipse cx="34.1442" cy="1.84543" rx="1.74343" ry="1.73899" fill="#EBEBEB"/>
<ellipse cx="44.9445" cy="1.84543" rx="1.74343" ry="1.73899" fill="#EBEBEB"/>
<ellipse cx="55.7448" cy="1.84543" rx="1.74343" ry="1.73899" fill="#EBEBEB"/>
<ellipse cx="66.5451" cy="1.84543" rx="1.74343" ry="1.73899" fill="#EBEBEB"/>
<ellipse cx="77.3452" cy="1.84543" rx="1.74343" ry="1.73899" fill="#EBEBEB"/>
<ellipse cx="88.1455" cy="1.84543" rx="1.74343" ry="1.73899" fill="#EBEBEB"/>
<ellipse cx="98.9458" cy="1.84543" rx="1.74343" ry="1.73899" fill="#EBEBEB"/>
<ellipse cx="109.746" cy="1.84543" rx="1.74343" ry="1.73899" fill="#EBEBEB"/>
<ellipse cx="120.546" cy="1.84543" rx="1.74343" ry="1.73899" fill="#EBEBEB"/>
<ellipse cx="131.347" cy="1.84543" rx="1.74343" ry="1.73899" fill="#EBEBEB"/>
<ellipse cx="142.147" cy="1.84543" rx="1.74343" ry="1.73899" fill="#EBEBEB"/>
<ellipse cx="152.947" cy="1.84543" rx="1.74343" ry="1.73899" fill="#EBEBEB"/>
<ellipse cx="163.747" cy="1.84543" rx="1.74343" ry="1.73899" fill="#EBEBEB"/>
<ellipse cx="174.548" cy="1.84543" rx="1.74343" ry="1.73899" fill="#EBEBEB"/>
<ellipse cx="185.348" cy="1.84543" rx="1.74343" ry="1.73899" fill="#EBEBEB"/>
<ellipse cx="196.148" cy="1.84543" rx="1.74343" ry="1.73899" fill="#EBEBEB"/>
<ellipse cx="206.948" cy="1.84543" rx="1.74343" ry="1.73899" fill="#EBEBEB"/>
<ellipse cx="1.74343" cy="11.6413" rx="1.74343" ry="1.73899" fill="#EBEBEB"/>
<ellipse cx="12.5437" cy="11.6413" rx="1.74343" ry="1.73899" fill="#EBEBEB"/>
<ellipse cx="23.344" cy="11.6413" rx="1.74343" ry="1.73899" fill="#EBEBEB"/>
<ellipse cx="34.1442" cy="11.6413" rx="1.74343" ry="1.73899" fill="#EBEBEB"/>
<ellipse cx="44.9445" cy="11.6413" rx="1.74343" ry="1.73899" fill="#EBEBEB"/>
<ellipse cx="55.7448" cy="11.6413" rx="1.74343" ry="1.73899" fill="#EBEBEB"/>
<ellipse cx="66.5451" cy="11.6413" rx="1.74343" ry="1.73899" fill="#EBEBEB"/>
<ellipse cx="77.3452" cy="11.6413" rx="1.74343" ry="1.73899" fill="#EBEBEB"/>
<ellipse cx="88.1455" cy="11.6413" rx="1.74343" ry="1.73899" fill="#EBEBEB"/>
<ellipse cx="98.9458" cy="11.6413" rx="1.74343" ry="1.73899" fill="#EBEBEB"/>
<ellipse cx="109.746" cy="11.6413" rx="1.74343" ry="1.73899" fill="#EBEBEB"/>
<ellipse cx="120.546" cy="11.6413" rx="1.74343" ry="1.73899" fill="#EBEBEB"/>
<ellipse cx="131.347" cy="11.6413" rx="1.74343" ry="1.73899" fill="#EBEBEB"/>
<ellipse cx="142.147" cy="11.6413" rx="1.74343" ry="1.73899" fill="#EBEBEB"/>
<ellipse cx="152.947" cy="11.6413" rx="1.74343" ry="1.73899" fill="#EBEBEB"/>
<ellipse cx="163.747" cy="11.6413" rx="1.74343" ry="1.73899" fill="#EBEBEB"/>
<ellipse cx="174.548" cy="11.6413" rx="1.74343" ry="1.73899" fill="#EBEBEB"/>
<ellipse cx="185.348" cy="11.6413" rx="1.74343" ry="1.73899" fill="#EBEBEB"/>
<ellipse cx="196.148" cy="11.6413" rx="1.74343" ry="1.73899" fill="#EBEBEB"/>
<ellipse cx="206.948" cy="11.6413" rx="1.74343" ry="1.73899" fill="#EBEBEB"/>
<ellipse cx="1.74343" cy="21.4372" rx="1.74343" ry="1.73899" fill="#EBEBEB"/>
<ellipse cx="12.5437" cy="21.4372" rx="1.74343" ry="1.73899" fill="#EBEBEB"/>
<ellipse cx="23.344" cy="21.4372" rx="1.74343" ry="1.73899" fill="#EBEBEB"/>
<ellipse cx="34.1442" cy="21.4372" rx="1.74343" ry="1.73899" fill="#EBEBEB"/>
<ellipse cx="44.9445" cy="21.4372" rx="1.74343" ry="1.73899" fill="#EBEBEB"/>
<ellipse cx="55.7448" cy="21.4372" rx="1.74343" ry="1.73899" fill="#EBEBEB"/>
<ellipse cx="66.5451" cy="21.4372" rx="1.74343" ry="1.73899" fill="#EBEBEB"/>
<ellipse cx="77.3452" cy="21.4372" rx="1.74343" ry="1.73899" fill="#EBEBEB"/>
<ellipse cx="88.1455" cy="21.4372" rx="1.74343" ry="1.73899" fill="#EBEBEB"/>
<ellipse cx="98.9458" cy="21.4372" rx="1.74343" ry="1.73899" fill="#EBEBEB"/>
<ellipse cx="109.746" cy="21.4372" rx="1.74343" ry="1.73899" fill="#EBEBEB"/>
<ellipse cx="120.546" cy="21.4372" rx="1.74343" ry="1.73899" fill="#EBEBEB"/>
<ellipse cx="131.347" cy="21.4372" rx="1.74343" ry="1.73899" fill="#EBEBEB"/>
<ellipse cx="142.147" cy="21.4372" rx="1.74343" ry="1.73899" fill="#EBEBEB"/>
<ellipse cx="152.947" cy="21.4372" rx="1.74343" ry="1.73899" fill="#EBEBEB"/>
<ellipse cx="163.747" cy="21.4372" rx="1.74343" ry="1.73899" fill="#EBEBEB"/>
<ellipse cx="174.548" cy="21.4372" rx="1.74343" ry="1.73899" fill="#EBEBEB"/>
<ellipse cx="185.348" cy="21.4372" rx="1.74343" ry="1.73899" fill="#EBEBEB"/>
<ellipse cx="196.148" cy="21.4372" rx="1.74343" ry="1.73899" fill="#EBEBEB"/>
<ellipse cx="206.948" cy="21.4372" rx="1.74343" ry="1.73899" fill="#EBEBEB"/>
<ellipse cx="1.74343" cy="31.2334" rx="1.74343" ry="1.73899" fill="#EBEBEB"/>
<ellipse cx="12.5437" cy="31.2334" rx="1.74343" ry="1.73899" fill="#EBEBEB"/>
<ellipse cx="23.344" cy="31.2334" rx="1.74343" ry="1.73899" fill="#EBEBEB"/>
<ellipse cx="34.1442" cy="31.2334" rx="1.74343" ry="1.73899" fill="#EBEBEB"/>
<ellipse cx="44.9445" cy="31.2334" rx="1.74343" ry="1.73899" fill="#EBEBEB"/>
<ellipse cx="55.7448" cy="31.2334" rx="1.74343" ry="1.73899" fill="#EBEBEB"/>
<ellipse cx="66.5451" cy="31.2334" rx="1.74343" ry="1.73899" fill="#EBEBEB"/>
<ellipse cx="77.3452" cy="31.2334" rx="1.74343" ry="1.73899" fill="#EBEBEB"/>
<ellipse cx="88.1455" cy="31.2334" rx="1.74343" ry="1.73899" fill="#EBEBEB"/>
<ellipse cx="98.9458" cy="31.2334" rx="1.74343" ry="1.73899" fill="#EBEBEB"/>
<ellipse cx="109.746" cy="31.2334" rx="1.74343" ry="1.73899" fill="#EBEBEB"/>
<ellipse cx="120.546" cy="31.2334" rx="1.74343" ry="1.73899" fill="#EBEBEB"/>
<ellipse cx="131.347" cy="31.2334" rx="1.74343" ry="1.73899" fill="#EBEBEB"/>
<ellipse cx="142.147" cy="31.2334" rx="1.74343" ry="1.73899" fill="#EBEBEB"/>
<ellipse cx="152.947" cy="31.2334" rx="1.74343" ry="1.73899" fill="#EBEBEB"/>
<ellipse cx="163.747" cy="31.2334" rx="1.74343" ry="1.73899" fill="#EBEBEB"/>
<ellipse cx="174.548" cy="31.2334" rx="1.74343" ry="1.73899" fill="#EBEBEB"/>
<ellipse cx="185.348" cy="31.2334" rx="1.74343" ry="1.73899" fill="#EBEBEB"/>
<ellipse cx="196.148" cy="31.2334" rx="1.74343" ry="1.73899" fill="#EBEBEB"/>
<ellipse cx="206.948" cy="31.2334" rx="1.74343" ry="1.73899" fill="#EBEBEB"/>
<ellipse cx="1.74343" cy="41.0293" rx="1.74343" ry="1.73899" fill="#EBEBEB"/>
<ellipse cx="12.5437" cy="41.0293" rx="1.74343" ry="1.73899" fill="#EBEBEB"/>
<ellipse cx="23.344" cy="41.0293" rx="1.74343" ry="1.73899" fill="#EBEBEB"/>
<ellipse cx="34.1442" cy="41.0293" rx="1.74343" ry="1.73899" fill="#EBEBEB"/>
<ellipse cx="44.9445" cy="41.0293" rx="1.74343" ry="1.73899" fill="#EBEBEB"/>
<ellipse cx="55.7448" cy="41.0293" rx="1.74343" ry="1.73899" fill="#EBEBEB"/>
<ellipse cx="66.5451" cy="41.0293" rx="1.74343" ry="1.73899" fill="#EBEBEB"/>
<ellipse cx="77.3452" cy="41.0293" rx="1.74343" ry="1.73899" fill="#EBEBEB"/>
<ellipse cx="88.1455" cy="41.0293" rx="1.74343" ry="1.73899" fill="#EBEBEB"/>
<ellipse cx="98.9458" cy="41.0293" rx="1.74343" ry="1.73899" fill="#EBEBEB"/>
<ellipse cx="109.746" cy="41.0293" rx="1.74343" ry="1.73899" fill="#EBEBEB"/>
<ellipse cx="120.546" cy="41.0293" rx="1.74343" ry="1.73899" fill="#EBEBEB"/>
<ellipse cx="131.347" cy="41.0293" rx="1.74343" ry="1.73899" fill="#EBEBEB"/>
<ellipse cx="142.147" cy="41.0293" rx="1.74343" ry="1.73899" fill="#EBEBEB"/>
<ellipse cx="152.947" cy="41.0293" rx="1.74343" ry="1.73899" fill="#EBEBEB"/>
<ellipse cx="163.747" cy="41.0293" rx="1.74343" ry="1.73899" fill="#EBEBEB"/>
<ellipse cx="174.548" cy="41.0293" rx="1.74343" ry="1.73899" fill="#EBEBEB"/>
<ellipse cx="185.348" cy="41.0293" rx="1.74343" ry="1.73899" fill="#EBEBEB"/>
<ellipse cx="196.148" cy="41.0293" rx="1.74343" ry="1.73899" fill="#EBEBEB"/>
<ellipse cx="206.948" cy="41.0293" rx="1.74343" ry="1.73899" fill="#EBEBEB"/>
<ellipse cx="1.74343" cy="50.8252" rx="1.74343" ry="1.73899" fill="#EBEBEB"/>
<ellipse cx="12.5437" cy="50.8252" rx="1.74343" ry="1.73899" fill="#EBEBEB"/>
<ellipse cx="23.344" cy="50.8252" rx="1.74343" ry="1.73899" fill="#EBEBEB"/>
<ellipse cx="34.1442" cy="50.8252" rx="1.74343" ry="1.73899" fill="#EBEBEB"/>
<ellipse cx="44.9445" cy="50.8252" rx="1.74343" ry="1.73899" fill="#EBEBEB"/>
<ellipse cx="55.7448" cy="50.8252" rx="1.74343" ry="1.73899" fill="#EBEBEB"/>
<ellipse cx="66.5451" cy="50.8252" rx="1.74343" ry="1.73899" fill="#EBEBEB"/>
<ellipse cx="77.3452" cy="50.8252" rx="1.74343" ry="1.73899" fill="#EBEBEB"/>
<ellipse cx="88.1455" cy="50.8252" rx="1.74343" ry="1.73899" fill="#EBEBEB"/>
<ellipse cx="98.9458" cy="50.8252" rx="1.74343" ry="1.73899" fill="#EBEBEB"/>
<ellipse cx="109.746" cy="50.8252" rx="1.74343" ry="1.73899" fill="#EBEBEB"/>
<ellipse cx="120.546" cy="50.8252" rx="1.74343" ry="1.73899" fill="#EBEBEB"/>
<ellipse cx="131.347" cy="50.8252" rx="1.74343" ry="1.73899" fill="#EBEBEB"/>
<ellipse cx="142.147" cy="50.8252" rx="1.74343" ry="1.73899" fill="#EBEBEB"/>
<ellipse cx="152.947" cy="50.8252" rx="1.74343" ry="1.73899" fill="#EBEBEB"/>
<ellipse cx="163.747" cy="50.8252" rx="1.74343" ry="1.73899" fill="#EBEBEB"/>
<ellipse cx="174.548" cy="50.8252" rx="1.74343" ry="1.73899" fill="#EBEBEB"/>
<ellipse cx="185.348" cy="50.8252" rx="1.74343" ry="1.73899" fill="#EBEBEB"/>
<ellipse cx="196.148" cy="50.8252" rx="1.74343" ry="1.73899" fill="#EBEBEB"/>
<ellipse cx="206.948" cy="50.8252" rx="1.74343" ry="1.73899" fill="#EBEBEB"/>
<ellipse cx="1.74343" cy="60.6213" rx="1.74343" ry="1.73899" fill="#EBEBEB"/>
<ellipse cx="12.5437" cy="60.6213" rx="1.74343" ry="1.73899" fill="#EBEBEB"/>
<ellipse cx="23.344" cy="60.6213" rx="1.74343" ry="1.73899" fill="#EBEBEB"/>
<ellipse cx="34.1442" cy="60.6213" rx="1.74343" ry="1.73899" fill="#EBEBEB"/>
<ellipse cx="44.9445" cy="60.6213" rx="1.74343" ry="1.73899" fill="#EBEBEB"/>
<ellipse cx="55.7448" cy="60.6213" rx="1.74343" ry="1.73899" fill="#EBEBEB"/>
<ellipse cx="66.5451" cy="60.6213" rx="1.74343" ry="1.73899" fill="#EBEBEB"/>
<ellipse cx="77.3452" cy="60.6213" rx="1.74343" ry="1.73899" fill="#EBEBEB"/>
<ellipse cx="88.1455" cy="60.6213" rx="1.74343" ry="1.73899" fill="#EBEBEB"/>
<ellipse cx="98.9458" cy="60.6213" rx="1.74343" ry="1.73899" fill="#EBEBEB"/>
<ellipse cx="109.746" cy="60.6213" rx="1.74343" ry="1.73899" fill="#EBEBEB"/>
<ellipse cx="120.546" cy="60.6213" rx="1.74343" ry="1.73899" fill="#EBEBEB"/>
<ellipse cx="131.347" cy="60.6213" rx="1.74343" ry="1.73899" fill="#EBEBEB"/>
<ellipse cx="142.147" cy="60.6213" rx="1.74343" ry="1.73899" fill="#EBEBEB"/>
<ellipse cx="152.947" cy="60.6213" rx="1.74343" ry="1.73899" fill="#EBEBEB"/>
<ellipse cx="163.747" cy="60.6213" rx="1.74343" ry="1.73899" fill="#EBEBEB"/>
<ellipse cx="174.548" cy="60.6213" rx="1.74343" ry="1.73899" fill="#EBEBEB"/>
<ellipse cx="185.348" cy="60.6213" rx="1.74343" ry="1.73899" fill="#EBEBEB"/>
<ellipse cx="196.148" cy="60.6213" rx="1.74343" ry="1.73899" fill="#EBEBEB"/>
<ellipse cx="206.948" cy="60.6213" rx="1.74343" ry="1.73899" fill="#EBEBEB"/>
<ellipse cx="1.74343" cy="70.4172" rx="1.74343" ry="1.73899" fill="#EBEBEB"/>
<ellipse cx="12.5437" cy="70.4172" rx="1.74343" ry="1.73899" fill="#EBEBEB"/>
<ellipse cx="23.344" cy="70.4172" rx="1.74343" ry="1.73899" fill="#EBEBEB"/>
<ellipse cx="34.1442" cy="70.4172" rx="1.74343" ry="1.73899" fill="#EBEBEB"/>
<ellipse cx="44.9445" cy="70.4172" rx="1.74343" ry="1.73899" fill="#EBEBEB"/>
<ellipse cx="55.7448" cy="70.4172" rx="1.74343" ry="1.73899" fill="#EBEBEB"/>
<ellipse cx="66.5451" cy="70.4172" rx="1.74343" ry="1.73899" fill="#EBEBEB"/>
<ellipse cx="77.3452" cy="70.4172" rx="1.74343" ry="1.73899" fill="#EBEBEB"/>
<ellipse cx="88.1455" cy="70.4172" rx="1.74343" ry="1.73899" fill="#EBEBEB"/>
<ellipse cx="98.9458" cy="70.4172" rx="1.74343" ry="1.73899" fill="#EBEBEB"/>
<ellipse cx="109.746" cy="70.4172" rx="1.74343" ry="1.73899" fill="#EBEBEB"/>
<ellipse cx="120.546" cy="70.4172" rx="1.74343" ry="1.73899" fill="#EBEBEB"/>
<ellipse cx="131.347" cy="70.4172" rx="1.74343" ry="1.73899" fill="#EBEBEB"/>
<ellipse cx="142.147" cy="70.4172" rx="1.74343" ry="1.73899" fill="#EBEBEB"/>
<ellipse cx="152.947" cy="70.4172" rx="1.74343" ry="1.73899" fill="#EBEBEB"/>
<ellipse cx="163.747" cy="70.4172" rx="1.74343" ry="1.73899" fill="#EBEBEB"/>
<ellipse cx="174.548" cy="70.4172" rx="1.74343" ry="1.73899" fill="#EBEBEB"/>
<ellipse cx="185.348" cy="70.4172" rx="1.74343" ry="1.73899" fill="#EBEBEB"/>
<ellipse cx="196.148" cy="70.4172" rx="1.74343" ry="1.73899" fill="#EBEBEB"/>
<ellipse cx="206.948" cy="70.4172" rx="1.74343" ry="1.73899" fill="#EBEBEB"/>
<ellipse cx="1.74343" cy="80.2131" rx="1.74343" ry="1.73899" fill="#EBEBEB"/>
<ellipse cx="12.5437" cy="80.2131" rx="1.74343" ry="1.73899" fill="#EBEBEB"/>
<ellipse cx="23.344" cy="80.2131" rx="1.74343" ry="1.73899" fill="#EBEBEB"/>
<ellipse cx="34.1442" cy="80.2131" rx="1.74343" ry="1.73899" fill="#EBEBEB"/>
<ellipse cx="44.9445" cy="80.2131" rx="1.74343" ry="1.73899" fill="#EBEBEB"/>
<ellipse cx="55.7448" cy="80.2131" rx="1.74343" ry="1.73899" fill="#EBEBEB"/>
<ellipse cx="66.5451" cy="80.2131" rx="1.74343" ry="1.73899" fill="#EBEBEB"/>
<ellipse cx="77.3452" cy="80.2131" rx="1.74343" ry="1.73899" fill="#EBEBEB"/>
<ellipse cx="88.1455" cy="80.2131" rx="1.74343" ry="1.73899" fill="#EBEBEB"/>
<ellipse cx="98.9458" cy="80.2131" rx="1.74343" ry="1.73899" fill="#EBEBEB"/>
<ellipse cx="109.746" cy="80.2131" rx="1.74343" ry="1.73899" fill="#EBEBEB"/>
<ellipse cx="120.546" cy="80.2131" rx="1.74343" ry="1.73899" fill="#EBEBEB"/>
<ellipse cx="131.347" cy="80.2131" rx="1.74343" ry="1.73899" fill="#EBEBEB"/>
<ellipse cx="142.147" cy="80.2131" rx="1.74343" ry="1.73899" fill="#EBEBEB"/>
<ellipse cx="152.947" cy="80.2131" rx="1.74343" ry="1.73899" fill="#EBEBEB"/>
<ellipse cx="163.747" cy="80.2131" rx="1.74343" ry="1.73899" fill="#EBEBEB"/>
<ellipse cx="174.548" cy="80.2131" rx="1.74343" ry="1.73899" fill="#EBEBEB"/>
<ellipse cx="185.348" cy="80.2131" rx="1.74343" ry="1.73899" fill="#EBEBEB"/>
<ellipse cx="196.148" cy="80.2131" rx="1.74343" ry="1.73899" fill="#EBEBEB"/>
<ellipse cx="206.948" cy="80.2131" rx="1.74343" ry="1.73899" fill="#EBEBEB"/>
<ellipse cx="1.74343" cy="90.009" rx="1.74343" ry="1.73899" fill="#EBEBEB"/>
<ellipse cx="12.5437" cy="90.009" rx="1.74343" ry="1.73899" fill="#EBEBEB"/>
<ellipse cx="23.344" cy="90.009" rx="1.74343" ry="1.73899" fill="#EBEBEB"/>
<ellipse cx="34.1442" cy="90.009" rx="1.74343" ry="1.73899" fill="#EBEBEB"/>
<ellipse cx="44.9445" cy="90.009" rx="1.74343" ry="1.73899" fill="#EBEBEB"/>
<ellipse cx="55.7448" cy="90.009" rx="1.74343" ry="1.73899" fill="#EBEBEB"/>
<ellipse cx="66.5451" cy="90.009" rx="1.74343" ry="1.73899" fill="#EBEBEB"/>
<ellipse cx="77.3452" cy="90.009" rx="1.74343" ry="1.73899" fill="#EBEBEB"/>
<ellipse cx="88.1455" cy="90.009" rx="1.74343" ry="1.73899" fill="#EBEBEB"/>
<ellipse cx="98.9458" cy="90.009" rx="1.74343" ry="1.73899" fill="#EBEBEB"/>
<ellipse cx="109.746" cy="90.009" rx="1.74343" ry="1.73899" fill="#EBEBEB"/>
<ellipse cx="120.546" cy="90.009" rx="1.74343" ry="1.73899" fill="#EBEBEB"/>
<ellipse cx="131.347" cy="90.009" rx="1.74343" ry="1.73899" fill="#EBEBEB"/>
<ellipse cx="142.147" cy="90.009" rx="1.74343" ry="1.73899" fill="#EBEBEB"/>
<ellipse cx="152.947" cy="90.009" rx="1.74343" ry="1.73899" fill="#EBEBEB"/>
<ellipse cx="163.747" cy="90.009" rx="1.74343" ry="1.73899" fill="#EBEBEB"/>
<ellipse cx="174.548" cy="90.009" rx="1.74343" ry="1.73899" fill="#EBEBEB"/>
<ellipse cx="185.348" cy="90.009" rx="1.74343" ry="1.73899" fill="#EBEBEB"/>
<ellipse cx="196.148" cy="90.009" rx="1.74343" ry="1.73899" fill="#EBEBEB"/>
<ellipse cx="206.948" cy="90.009" rx="1.74343" ry="1.73899" fill="#EBEBEB"/>
<ellipse cx="1.74343" cy="99.8052" rx="1.74343" ry="1.73899" fill="#EBEBEB"/>
<ellipse cx="12.5437" cy="99.8052" rx="1.74343" ry="1.73899" fill="#EBEBEB"/>
<ellipse cx="23.344" cy="99.8052" rx="1.74343" ry="1.73899" fill="#EBEBEB"/>
<ellipse cx="34.1442" cy="99.8052" rx="1.74343" ry="1.73899" fill="#EBEBEB"/>
<ellipse cx="44.9445" cy="99.8052" rx="1.74343" ry="1.73899" fill="#EBEBEB"/>
<ellipse cx="55.7448" cy="99.8052" rx="1.74343" ry="1.73899" fill="#EBEBEB"/>
<ellipse cx="66.5451" cy="99.8052" rx="1.74343" ry="1.73899" fill="#EBEBEB"/>
<ellipse cx="77.3452" cy="99.8052" rx="1.74343" ry="1.73899" fill="#EBEBEB"/>
<ellipse cx="88.1455" cy="99.8052" rx="1.74343" ry="1.73899" fill="#EBEBEB"/>
<ellipse cx="98.9458" cy="99.8052" rx="1.74343" ry="1.73899" fill="#EBEBEB"/>
<ellipse cx="109.746" cy="99.8052" rx="1.74343" ry="1.73899" fill="#EBEBEB"/>
<ellipse cx="120.546" cy="99.8052" rx="1.74343" ry="1.73899" fill="#EBEBEB"/>
<ellipse cx="131.347" cy="99.8052" rx="1.74343" ry="1.73899" fill="#EBEBEB"/>
<ellipse cx="142.147" cy="99.8052" rx="1.74343" ry="1.73899" fill="#EBEBEB"/>
<ellipse cx="152.947" cy="99.8052" rx="1.74343" ry="1.73899" fill="#EBEBEB"/>
<ellipse cx="163.747" cy="99.8052" rx="1.74343" ry="1.73899" fill="#EBEBEB"/>
<ellipse cx="174.548" cy="99.8052" rx="1.74343" ry="1.73899" fill="#EBEBEB"/>
<ellipse cx="185.348" cy="99.8052" rx="1.74343" ry="1.73899" fill="#EBEBEB"/>
<ellipse cx="196.148" cy="99.8052" rx="1.74343" ry="1.73899" fill="#EBEBEB"/>
<ellipse cx="206.948" cy="99.8052" rx="1.74343" ry="1.73899" fill="#EBEBEB"/>
<ellipse cx="1.74343" cy="109.601" rx="1.74343" ry="1.73899" fill="#EBEBEB"/>
<ellipse cx="12.5437" cy="109.601" rx="1.74343" ry="1.73899" fill="#EBEBEB"/>
<ellipse cx="23.344" cy="109.601" rx="1.74343" ry="1.73899" fill="#EBEBEB"/>
<ellipse cx="34.1442" cy="109.601" rx="1.74343" ry="1.73899" fill="#EBEBEB"/>
<ellipse cx="44.9445" cy="109.601" rx="1.74343" ry="1.73899" fill="#EBEBEB"/>
<ellipse cx="55.7448" cy="109.601" rx="1.74343" ry="1.73899" fill="#EBEBEB"/>
<ellipse cx="66.5451" cy="109.601" rx="1.74343" ry="1.73899" fill="#EBEBEB"/>
<ellipse cx="77.3452" cy="109.601" rx="1.74343" ry="1.73899" fill="#EBEBEB"/>
<ellipse cx="88.1455" cy="109.601" rx="1.74343" ry="1.73899" fill="#EBEBEB"/>
<ellipse cx="98.9458" cy="109.601" rx="1.74343" ry="1.73899" fill="#EBEBEB"/>
<ellipse cx="109.746" cy="109.601" rx="1.74343" ry="1.73899" fill="#EBEBEB"/>
<ellipse cx="120.546" cy="109.601" rx="1.74343" ry="1.73899" fill="#EBEBEB"/>
<ellipse cx="131.347" cy="109.601" rx="1.74343" ry="1.73899" fill="#EBEBEB"/>
<ellipse cx="142.147" cy="109.601" rx="1.74343" ry="1.73899" fill="#EBEBEB"/>
<ellipse cx="152.947" cy="109.601" rx="1.74343" ry="1.73899" fill="#EBEBEB"/>
<ellipse cx="163.747" cy="109.601" rx="1.74343" ry="1.73899" fill="#EBEBEB"/>
<ellipse cx="174.548" cy="109.601" rx="1.74343" ry="1.73899" fill="#EBEBEB"/>
<ellipse cx="185.348" cy="109.601" rx="1.74343" ry="1.73899" fill="#EBEBEB"/>
<ellipse cx="196.148" cy="109.601" rx="1.74343" ry="1.73899" fill="#EBEBEB"/>
<ellipse cx="206.948" cy="109.601" rx="1.74343" ry="1.73899" fill="#EBEBEB"/>
<ellipse cx="1.74343" cy="119.397" rx="1.74343" ry="1.73899" fill="#EBEBEB"/>
<ellipse cx="12.5437" cy="119.397" rx="1.74343" ry="1.73899" fill="#EBEBEB"/>
<ellipse cx="23.344" cy="119.397" rx="1.74343" ry="1.73899" fill="#EBEBEB"/>
<ellipse cx="34.1442" cy="119.397" rx="1.74343" ry="1.73899" fill="#EBEBEB"/>
<ellipse cx="44.9445" cy="119.397" rx="1.74343" ry="1.73899" fill="#EBEBEB"/>
<ellipse cx="55.7448" cy="119.397" rx="1.74343" ry="1.73899" fill="#EBEBEB"/>
<ellipse cx="66.5451" cy="119.397" rx="1.74343" ry="1.73899" fill="#EBEBEB"/>
<ellipse cx="77.3452" cy="119.397" rx="1.74343" ry="1.73899" fill="#EBEBEB"/>
<ellipse cx="88.1455" cy="119.397" rx="1.74343" ry="1.73899" fill="#EBEBEB"/>
<ellipse cx="98.9458" cy="119.397" rx="1.74343" ry="1.73899" fill="#EBEBEB"/>
<ellipse cx="109.746" cy="119.397" rx="1.74343" ry="1.73899" fill="#EBEBEB"/>
<ellipse cx="120.546" cy="119.397" rx="1.74343" ry="1.73899" fill="#EBEBEB"/>
<ellipse cx="131.347" cy="119.397" rx="1.74343" ry="1.73899" fill="#EBEBEB"/>
<ellipse cx="142.147" cy="119.397" rx="1.74343" ry="1.73899" fill="#EBEBEB"/>
<ellipse cx="152.947" cy="119.397" rx="1.74343" ry="1.73899" fill="#EBEBEB"/>
<ellipse cx="163.747" cy="119.397" rx="1.74343" ry="1.73899" fill="#EBEBEB"/>
<ellipse cx="174.548" cy="119.397" rx="1.74343" ry="1.73899" fill="#EBEBEB"/>
<ellipse cx="185.348" cy="119.397" rx="1.74343" ry="1.73899" fill="#EBEBEB"/>
<ellipse cx="196.148" cy="119.397" rx="1.74343" ry="1.73899" fill="#EBEBEB"/>
<ellipse cx="206.948" cy="119.397" rx="1.74343" ry="1.73899" fill="#EBEBEB"/>
<ellipse cx="1.74343" cy="129.193" rx="1.74343" ry="1.73899" fill="#EBEBEB"/>
<ellipse cx="12.5437" cy="129.193" rx="1.74343" ry="1.73899" fill="#EBEBEB"/>
<ellipse cx="23.344" cy="129.193" rx="1.74343" ry="1.73899" fill="#EBEBEB"/>
<ellipse cx="34.1442" cy="129.193" rx="1.74343" ry="1.73899" fill="#EBEBEB"/>
<ellipse cx="44.9445" cy="129.193" rx="1.74343" ry="1.73899" fill="#EBEBEB"/>
<ellipse cx="55.7448" cy="129.193" rx="1.74343" ry="1.73899" fill="#EBEBEB"/>
<ellipse cx="66.5451" cy="129.193" rx="1.74343" ry="1.73899" fill="#EBEBEB"/>
<ellipse cx="77.3452" cy="129.193" rx="1.74343" ry="1.73899" fill="#EBEBEB"/>
<ellipse cx="88.1455" cy="129.193" rx="1.74343" ry="1.73899" fill="#EBEBEB"/>
<ellipse cx="98.9458" cy="129.193" rx="1.74343" ry="1.73899" fill="#EBEBEB"/>
<ellipse cx="109.746" cy="129.193" rx="1.74343" ry="1.73899" fill="#EBEBEB"/>
<ellipse cx="120.546" cy="129.193" rx="1.74343" ry="1.73899" fill="#EBEBEB"/>
<ellipse cx="131.347" cy="129.193" rx="1.74343" ry="1.73899" fill="#EBEBEB"/>
<ellipse cx="142.147" cy="129.193" rx="1.74343" ry="1.73899" fill="#EBEBEB"/>
<ellipse cx="152.947" cy="129.193" rx="1.74343" ry="1.73899" fill="#EBEBEB"/>
<ellipse cx="163.747" cy="129.193" rx="1.74343" ry="1.73899" fill="#EBEBEB"/>
<ellipse cx="174.548" cy="129.193" rx="1.74343" ry="1.73899" fill="#EBEBEB"/>
<ellipse cx="185.348" cy="129.193" rx="1.74343" ry="1.73899" fill="#EBEBEB"/>
<ellipse cx="196.148" cy="129.193" rx="1.74343" ry="1.73899" fill="#EBEBEB"/>
<ellipse cx="206.948" cy="129.193" rx="1.74343" ry="1.73899" fill="#EBEBEB"/>
<ellipse cx="1.74343" cy="138.989" rx="1.74343" ry="1.73899" fill="#EBEBEB"/>
<ellipse cx="12.5437" cy="138.989" rx="1.74343" ry="1.73899" fill="#EBEBEB"/>
<ellipse cx="23.344" cy="138.989" rx="1.74343" ry="1.73899" fill="#EBEBEB"/>
<ellipse cx="34.1442" cy="138.989" rx="1.74343" ry="1.73899" fill="#EBEBEB"/>
<ellipse cx="44.9445" cy="138.989" rx="1.74343" ry="1.73899" fill="#EBEBEB"/>
<ellipse cx="55.7448" cy="138.989" rx="1.74343" ry="1.73899" fill="#EBEBEB"/>
<ellipse cx="66.5451" cy="138.989" rx="1.74343" ry="1.73899" fill="#EBEBEB"/>
<ellipse cx="77.3452" cy="138.989" rx="1.74343" ry="1.73899" fill="#EBEBEB"/>
<ellipse cx="88.1455" cy="138.989" rx="1.74343" ry="1.73899" fill="#EBEBEB"/>
<ellipse cx="98.9458" cy="138.989" rx="1.74343" ry="1.73899" fill="#EBEBEB"/>
<ellipse cx="109.746" cy="138.989" rx="1.74343" ry="1.73899" fill="#EBEBEB"/>
<ellipse cx="120.546" cy="138.989" rx="1.74343" ry="1.73899" fill="#EBEBEB"/>
<ellipse cx="131.347" cy="138.989" rx="1.74343" ry="1.73899" fill="#EBEBEB"/>
<ellipse cx="142.147" cy="138.989" rx="1.74343" ry="1.73899" fill="#EBEBEB"/>
<ellipse cx="152.947" cy="138.989" rx="1.74343" ry="1.73899" fill="#EBEBEB"/>
<ellipse cx="163.747" cy="138.989" rx="1.74343" ry="1.73899" fill="#EBEBEB"/>
<ellipse cx="174.548" cy="138.989" rx="1.74343" ry="1.73899" fill="#EBEBEB"/>
<ellipse cx="185.348" cy="138.989" rx="1.74343" ry="1.73899" fill="#EBEBEB"/>
<ellipse cx="196.148" cy="138.989" rx="1.74343" ry="1.73899" fill="#EBEBEB"/>
<ellipse cx="206.948" cy="138.989" rx="1.74343" ry="1.73899" fill="#EBEBEB"/>
<ellipse cx="1.74343" cy="148.785" rx="1.74343" ry="1.73899" fill="#EBEBEB"/>
<ellipse cx="12.5437" cy="148.785" rx="1.74343" ry="1.73899" fill="#EBEBEB"/>
<ellipse cx="23.344" cy="148.785" rx="1.74343" ry="1.73899" fill="#EBEBEB"/>
<ellipse cx="34.1442" cy="148.785" rx="1.74343" ry="1.73899" fill="#EBEBEB"/>
<ellipse cx="44.9445" cy="148.785" rx="1.74343" ry="1.73899" fill="#EBEBEB"/>
<ellipse cx="55.7448" cy="148.785" rx="1.74343" ry="1.73899" fill="#EBEBEB"/>
<ellipse cx="66.5451" cy="148.785" rx="1.74343" ry="1.73899" fill="#EBEBEB"/>
<ellipse cx="77.3452" cy="148.785" rx="1.74343" ry="1.73899" fill="#EBEBEB"/>
<ellipse cx="88.1455" cy="148.785" rx="1.74343" ry="1.73899" fill="#EBEBEB"/>
<ellipse cx="98.9458" cy="148.785" rx="1.74343" ry="1.73899" fill="#EBEBEB"/>
<ellipse cx="109.746" cy="148.785" rx="1.74343" ry="1.73899" fill="#EBEBEB"/>
<ellipse cx="120.546" cy="148.785" rx="1.74343" ry="1.73899" fill="#EBEBEB"/>
<ellipse cx="131.347" cy="148.785" rx="1.74343" ry="1.73899" fill="#EBEBEB"/>
<ellipse cx="142.147" cy="148.785" rx="1.74343" ry="1.73899" fill="#EBEBEB"/>
<ellipse cx="152.947" cy="148.785" rx="1.74343" ry="1.73899" fill="#EBEBEB"/>
<ellipse cx="163.747" cy="148.785" rx="1.74343" ry="1.73899" fill="#EBEBEB"/>
<ellipse cx="174.548" cy="148.785" rx="1.74343" ry="1.73899" fill="#EBEBEB"/>
<ellipse cx="185.348" cy="148.785" rx="1.74343" ry="1.73899" fill="#EBEBEB"/>
<ellipse cx="196.148" cy="148.785" rx="1.74343" ry="1.73899" fill="#EBEBEB"/>
<ellipse cx="206.948" cy="148.785" rx="1.74343" ry="1.73899" fill="#EBEBEB"/>
</svg>
